<svg width="269" height="103" viewBox="0 0 269 103" fill="none" xmlns="http://www.w3.org/2000/svg">
<path d="M231.371 32.6235C234.752 34.2961 236.951 32.5687 237.967 27.4413C239.275 22.602 241.099 21.3349 243.44 23.64C247.094 25.1965 249.575 23.555 250.883 18.7157C251.899 13.5883 253.979 12.062 257.122 14.1369" stroke="#FF8E15" stroke-width="3" stroke-linecap="round"/>
<path d="M258.369 80.6016C256.663 75.1654 253.274 74.3501 248.202 78.1557C243.13 81.9614 239.693 81.2273 237.891 75.9536C236.088 70.6798 232.651 69.9458 227.579 73.7514C222.22 77.0966 218.783 76.3625 217.268 71.5492" stroke="#43C849" stroke-width="3" stroke-linecap="round"/>
<path d="M46.033 43.9687C44.6613 37.5724 41.7957 36.8425 37.4361 41.7791C33.3419 46.0762 30.384 44.849 28.5624 38.0974C26.4755 31.9853 23.385 31.0777 19.2907 35.3749C14.9312 40.3114 12.3336 39.6084 11.498 33.2659" stroke="#FF66E8" stroke-width="3" stroke-linecap="round"/>
<path d="M16.7022 90.2598C21.9597 93.4024 25.2272 91.7622 26.5047 85.3392C26.5797 79.1434 29.3982 77.5806 34.9602 80.6509C39.921 83.8348 43.0401 82.2153 44.3176 75.7922C44.3926 69.5964 47.2111 68.0336 52.7731 71.104" stroke="#B68AFF" stroke-width="3" stroke-linecap="round"/>
<path d="M81.32 26.64C81.3787 26.8453 81.364 27.0507 81.276 27.256C81.188 27.4613 81.1733 27.6813 81.232 27.916C81.232 28.0333 81.2027 28.1507 81.144 28.268C81.144 28.3267 81.1293 28.3853 81.1 28.444C81.0707 28.4733 81.056 28.5027 81.056 28.532C81.0853 29.0013 81.0853 29.324 81.056 29.5C81.056 29.6467 80.9827 29.9547 80.836 30.424C80.8653 30.5413 80.88 30.688 80.88 30.864C80.9093 31.0107 80.9387 31.172 80.968 31.348C80.9387 31.5533 80.8653 31.8173 80.748 32.14C80.66 32.0813 80.572 32.0373 80.484 32.008C80.4253 31.9787 80.3667 31.9493 80.308 31.92C80.132 31.8613 80.044 31.9347 80.044 32.14C80.044 32.3453 80.0733 32.536 80.132 32.712C80.22 32.8587 80.3227 33.0053 80.44 33.152C80.3813 33.3867 80.3227 33.636 80.264 33.9C80.2347 34.164 80.1907 34.4427 80.132 34.736C79.9853 35 79.824 35.2787 79.648 35.572C79.472 35.836 79.2373 36.0413 78.944 36.188C78.9147 36.3347 78.8853 36.4667 78.856 36.584C78.8267 36.672 78.7827 36.7893 78.724 36.936C78.46 37.1413 78.196 37.3613 77.932 37.596C77.668 37.8013 77.448 38.0213 77.272 38.256C77.1253 38.3733 76.9933 38.4173 76.876 38.388C76.7587 38.3587 76.6413 38.3587 76.524 38.388C76.3187 38.5347 76.1133 38.6813 75.908 38.828C75.732 38.9747 75.5413 39.1213 75.336 39.268C75.1307 39.3853 74.94 39.5173 74.764 39.664C74.588 39.8107 74.3973 39.9573 74.192 40.104H73.532C73.3853 40.2213 73.2533 40.324 73.136 40.412C73.0187 40.4707 72.8867 40.544 72.74 40.632C72.652 40.632 72.5787 40.6467 72.52 40.676C72.4907 40.676 72.4467 40.6613 72.388 40.632C72.0947 40.6027 71.8893 40.6173 71.772 40.676C71.6547 40.7053 71.42 40.7933 71.068 40.94C70.804 41.028 70.54 41.116 70.276 41.204C70.012 41.3213 69.748 41.4387 69.484 41.556C69.1613 41.4093 68.824 41.336 68.472 41.336C68.1493 41.336 67.812 41.336 67.46 41.336C67.284 41.2187 67.108 41.116 66.932 41.028C66.8147 40.9693 66.712 40.9253 66.624 40.896C66.5653 40.8667 66.4773 40.8373 66.36 40.808C66.3013 40.808 66.2133 40.808 66.096 40.808C66.008 40.808 65.9053 40.8373 65.788 40.896C65.7293 40.9253 65.656 40.9693 65.568 41.028C65.48 41.0867 65.4067 41.16 65.348 41.248C64.7907 41.16 64.2187 41.072 63.632 40.984C63.0453 40.9253 62.4587 40.8373 61.872 40.72C61.6373 40.6613 61.4027 40.6027 61.168 40.544C60.9627 40.456 60.7427 40.3827 60.508 40.324C60.332 40.3533 60.156 40.3827 59.98 40.412C59.804 40.4413 59.6133 40.4853 59.408 40.544C58.9387 40.6027 58.6013 40.3973 58.396 39.928C58.396 39.8693 58.3813 39.8107 58.352 39.752C58.352 39.6933 58.352 39.6493 58.352 39.62C58.4107 39.2973 58.4693 38.9893 58.528 38.696C58.5867 38.4027 58.6307 38.124 58.66 37.86C58.66 37.8013 58.7187 37.7133 58.836 37.596V37.42C58.7187 37.332 58.6013 37.244 58.484 37.156C58.396 37.068 58.308 36.98 58.22 36.892L58.176 32.932V32.888H58.484C58.4547 32.8293 58.4107 32.7853 58.352 32.756C58.2933 32.6973 58.2347 32.6533 58.176 32.624C58.176 32.624 58.22 32.492 58.308 32.228C58.396 31.964 58.4547 31.7733 58.484 31.656C58.5427 31.48 58.528 31.3333 58.44 31.216C58.3813 31.0987 58.3373 30.9813 58.308 30.864C58.3667 30.7467 58.4253 30.644 58.484 30.556C58.5427 30.4387 58.5867 30.3213 58.616 30.204C58.5867 30.0573 58.5427 29.9253 58.484 29.808C58.4253 29.6907 58.3667 29.5733 58.308 29.456C58.2787 29.3093 58.2787 29.1627 58.308 29.016C58.3667 28.84 58.396 28.6933 58.396 28.576C58.4547 28.4293 58.4693 28.2827 58.44 28.136C58.4107 27.9893 58.396 27.8133 58.396 27.608C58.308 27.2853 58.176 26.9333 58 26.552C58.088 26.376 58.1613 26.2 58.22 26.024C58.2787 25.848 58.3373 25.672 58.396 25.496L58.264 24.88C58.3227 24.6453 58.3813 24.4107 58.44 24.176C58.528 23.912 58.5867 23.6773 58.616 23.472C58.4987 23.032 58.44 22.6067 58.44 22.196C58.4693 21.756 58.484 21.316 58.484 20.876C58.484 20.6413 58.5573 20.3773 58.704 20.084C58.7627 20.0253 58.792 19.9667 58.792 19.908C58.8213 19.82 58.8507 19.7613 58.88 19.732C58.7333 19.4387 58.6453 19.2187 58.616 19.072C58.616 18.896 58.6453 18.72 58.704 18.544C58.7627 18.3387 58.7187 18.1627 58.572 18.016C58.484 17.6933 58.4547 17.4 58.484 17.136C58.5133 16.8427 58.5573 16.5493 58.616 16.256C58.7627 16.1093 58.88 15.9627 58.968 15.816C59.0853 15.64 59.2027 15.464 59.32 15.288C59.4667 15.2587 59.6133 15.2293 59.76 15.2C59.936 15.1413 60.0827 15.1267 60.2 15.156C60.6693 15.244 61.168 15.1707 61.696 14.936C61.8427 14.848 61.9893 14.8187 62.136 14.848C62.312 14.8773 62.488 14.9213 62.664 14.98C63.2213 14.892 63.7787 14.804 64.336 14.716C64.8933 14.628 65.436 14.5107 65.964 14.364C66.1107 14.3053 66.2573 14.2907 66.404 14.32C66.5507 14.3493 66.7267 14.364 66.932 14.364L67.724 14.012C67.8707 14.0413 68.0173 14.0853 68.164 14.144C68.3107 14.1733 68.4573 14.2173 68.604 14.276C68.78 14.2467 68.956 14.2027 69.132 14.144C69.308 14.0853 69.4987 14.0413 69.704 14.012C69.8213 14.0707 69.9387 14.144 70.056 14.232C70.1733 14.32 70.2907 14.3933 70.408 14.452C70.7307 14.4227 71.024 14.364 71.288 14.276C71.5813 14.188 71.8747 14.1293 72.168 14.1C72.2853 14.2173 72.3733 14.3493 72.432 14.496C72.4907 14.6133 72.5787 14.716 72.696 14.804C72.8133 14.9507 72.9747 15.024 73.18 15.024C73.4147 14.9947 73.576 14.892 73.664 14.716C73.7227 14.5693 73.8107 14.5107 73.928 14.54C74.0747 14.5693 74.2213 14.7013 74.368 14.936C74.544 14.936 74.72 14.9213 74.896 14.892C75.072 14.8627 75.2627 14.848 75.468 14.848C75.6147 14.936 75.732 15.024 75.82 15.112C75.9373 15.1707 76.0547 15.2587 76.172 15.376C76.2893 15.4933 76.4067 15.6107 76.524 15.728C76.6413 15.816 76.7733 15.904 76.92 15.992C77.096 16.08 77.2133 16.212 77.272 16.388C77.3893 16.564 77.5213 16.74 77.668 16.916C77.844 17.0627 78.0053 17.2093 78.152 17.356C78.3867 17.62 78.7387 17.8253 79.208 17.972C79.2667 18.0013 79.3253 18.0307 79.384 18.06C79.472 18.0893 79.5307 18.1187 79.56 18.148C79.6187 18.3827 79.6773 18.6173 79.736 18.852C79.824 19.0573 79.8827 19.2773 79.912 19.512C79.8827 19.776 79.8387 19.996 79.78 20.172C79.8387 20.436 79.956 20.656 80.132 20.832C80.308 20.9787 80.4693 21.14 80.616 21.316C81.0267 21.9613 81.232 22.7093 81.232 23.56C81.232 23.8533 81.2467 24.1467 81.276 24.44C81.3053 24.704 81.2907 24.968 81.232 25.232C81.2027 25.4667 81.2173 25.7013 81.276 25.936C81.364 26.1707 81.3787 26.4053 81.32 26.64ZM74.808 25.804C74.7493 25.6573 74.6613 25.5107 74.544 25.364C74.456 25.188 74.3827 25.012 74.324 24.836C74.236 24.66 74.1627 24.484 74.104 24.308C74.0453 24.1027 73.9867 23.8973 73.928 23.692C73.4587 23.6333 73.048 23.4867 72.696 23.252C72.3733 23.0173 72.0507 22.7827 71.728 22.548H71.068C70.7747 22.3133 70.496 22.108 70.232 21.932C69.968 21.7267 69.6893 21.5213 69.396 21.316C68.8973 21.2573 68.3987 21.2573 67.9 21.316C67.4307 21.3453 66.9907 21.316 66.58 21.228C66.316 21.316 66.0813 21.3893 65.876 21.448C65.7 21.4773 65.524 21.5213 65.348 21.58C65.172 21.6973 65.0547 21.7853 64.996 21.844C64.908 22.284 64.8787 22.724 64.908 23.164C64.9373 23.604 64.9667 24.044 64.996 24.484C65.1133 24.66 65.128 24.836 65.04 25.012C64.9813 25.1587 64.9667 25.3053 64.996 25.452C65.0253 25.54 65.04 25.628 65.04 25.716C65.0693 25.804 65.0987 25.9213 65.128 26.068C65.0693 26.244 65.0253 26.4347 64.996 26.64C64.996 26.816 64.9813 27.0213 64.952 27.256C64.952 27.7253 64.908 28.1653 64.82 28.576C64.908 28.7227 64.9813 28.8693 65.04 29.016C65.0987 29.1333 65.1573 29.2653 65.216 29.412C65.128 29.676 65.0253 29.9547 64.908 30.248C64.82 30.512 64.7467 30.7613 64.688 30.996C64.688 31.1427 64.688 31.2893 64.688 31.436C64.7173 31.5827 64.7173 31.7293 64.688 31.876C64.6587 32.228 64.5707 32.58 64.424 32.932L64.6 33.24C64.776 33.68 65.128 33.8413 65.656 33.724C65.9787 33.724 66.2427 33.68 66.448 33.592C66.6533 33.5333 66.844 33.5333 67.02 33.592C67.2253 33.6213 67.4307 33.6213 67.636 33.592C67.8707 33.5333 68.12 33.46 68.384 33.372C68.6773 33.2547 68.9413 33.152 69.176 33.064C69.3227 33.0347 69.4547 33.0053 69.572 32.976C69.6893 32.9467 69.8067 32.9467 69.924 32.976C70.188 33.0053 70.4667 33.0053 70.76 32.976C71.0533 32.9467 71.3467 32.9173 71.64 32.888C71.6987 32.8293 71.7867 32.7853 71.904 32.756C72.0213 32.6973 72.124 32.6387 72.212 32.58C72.652 32.3747 73.0333 32.0373 73.356 31.568C73.5027 31.3627 73.62 31.1427 73.708 30.908C73.8253 30.644 73.9427 30.4093 74.06 30.204C74.2947 29.7053 74.4707 29.2213 74.588 28.752C74.7053 28.2533 74.7347 27.74 74.676 27.212C74.6467 27.0947 74.632 26.9773 74.632 26.86C74.6613 26.7427 74.6907 26.6253 74.72 26.508C74.7493 26.3907 74.7787 26.2733 74.808 26.156C74.8373 26.0387 74.8373 25.9213 74.808 25.804Z" fill="#0A0A0A"/>
<path d="M100.562 22.108C100.621 22.5773 100.548 22.9147 100.342 23.12C100.196 23.296 100.093 23.4867 100.034 23.692C100.005 23.8973 99.9758 24.1173 99.9464 24.352C99.8878 24.44 99.8291 24.528 99.7704 24.616C99.7411 24.704 99.6971 24.792 99.6384 24.88C99.5211 24.9973 99.4038 25.1293 99.2864 25.276C99.1984 25.4227 99.1104 25.5693 99.0224 25.716C98.9638 25.8333 98.9198 25.9653 98.8904 26.112C98.8611 26.2587 98.8171 26.4053 98.7584 26.552C98.7291 26.5813 98.6998 26.6253 98.6704 26.684C98.6704 26.7133 98.6558 26.7427 98.6264 26.772C98.5971 26.8013 98.5531 26.816 98.4944 26.816C98.4651 26.816 98.4358 26.8307 98.4064 26.86H98.1864C97.5411 26.596 96.9104 26.5813 96.2944 26.816C96.1771 26.8453 96.0744 26.86 95.9864 26.86C95.8984 26.86 95.7958 26.86 95.6784 26.86C95.5904 26.8893 95.5024 26.904 95.4144 26.904C95.3558 26.904 95.2971 26.9187 95.2384 26.948C94.8864 27.0947 94.5784 27.2853 94.3144 27.52C94.0504 27.7547 93.8011 28.004 93.5664 28.268C93.4491 28.62 93.3171 28.9867 93.1704 29.368C93.0531 29.72 92.9944 30.116 92.9944 30.556C92.9944 30.5853 92.9798 30.644 92.9504 30.732C92.9211 30.7907 92.8918 30.8493 92.8624 30.908C92.8331 31.0253 92.7891 31.128 92.7304 31.216C92.7011 31.2747 92.6571 31.3627 92.5984 31.48C92.5398 31.656 92.4664 31.832 92.3784 32.008C92.2904 32.184 92.2171 32.36 92.1584 32.536C92.2171 32.7413 92.2024 32.932 92.1144 33.108C92.0558 33.284 92.0264 33.46 92.0264 33.636C92.0851 33.9 92.0851 34.1493 92.0264 34.384C91.9971 34.5893 91.9531 34.8093 91.8944 35.044C91.8064 35.308 91.7624 35.5867 91.7624 35.88C91.7918 36.144 91.8064 36.408 91.8064 36.672C91.7771 36.9947 91.7624 37.332 91.7624 37.684C91.7918 38.036 91.8064 38.3733 91.8064 38.696C91.8064 38.9013 91.7918 39.1213 91.7624 39.356C91.7331 39.5907 91.7184 39.8253 91.7184 40.06C91.6304 40.236 91.5571 40.3533 91.4984 40.412C91.2931 40.7347 91.0438 40.9547 90.7504 41.072C90.4571 41.2187 90.1344 41.2773 89.7824 41.248C89.5478 41.2187 89.2984 41.1893 89.0344 41.16C88.7998 41.1307 88.5651 41.1013 88.3304 41.072C88.2131 41.0427 88.0664 40.9987 87.8904 40.94C87.7144 40.9107 87.5531 40.8667 87.4064 40.808C87.2891 40.8373 87.1864 40.852 87.0984 40.852C87.0398 40.8813 86.9664 40.9107 86.8784 40.94C86.4971 40.8227 86.1451 40.6027 85.8224 40.28C85.8518 40.0747 85.8664 39.8693 85.8664 39.664C85.8664 39.4587 85.8811 39.2533 85.9104 39.048C85.8811 38.96 85.8518 38.8573 85.8224 38.74C85.8224 38.5933 85.7931 38.4613 85.7344 38.344C85.7051 38.168 85.6611 37.992 85.6024 37.816C85.5438 37.64 85.5291 37.4493 85.5584 37.244C85.5291 36.804 85.4411 36.2907 85.2944 35.704C85.3531 35.6453 85.3971 35.572 85.4264 35.484C85.4851 35.3667 85.5291 35.264 85.5584 35.176C85.5878 35.088 85.6024 35.0147 85.6024 34.956C85.6318 34.868 85.6464 34.78 85.6464 34.692C85.6464 34.6333 85.6611 34.5893 85.6904 34.56C85.7198 34.5013 85.7051 34.4427 85.6464 34.384C85.6171 34.296 85.5878 34.208 85.5584 34.12C85.5584 34.0027 85.5438 33.9 85.5144 33.812C85.4851 33.5187 85.4851 33.2253 85.5144 32.932C85.5438 32.8147 85.5584 32.712 85.5584 32.624C85.5878 32.5067 85.6171 32.3893 85.6464 32.272C85.7051 32.1253 85.7198 31.964 85.6904 31.788C85.6904 31.612 85.6171 31.4653 85.4704 31.348C85.4411 31.3187 85.4118 31.2893 85.3824 31.26C85.3824 31.2013 85.3531 31.1573 85.2944 31.128C85.2651 30.9813 85.2358 30.82 85.2064 30.644C85.2064 30.468 85.1771 30.3067 85.1184 30.16C85.0891 29.9547 85.0451 29.764 84.9864 29.588C84.9571 29.412 84.9424 29.2213 84.9424 29.016C85.0011 28.664 85.0158 28.3267 84.9864 28.004C84.9571 27.652 84.9864 27.3 85.0744 26.948C85.0744 26.8893 85.0598 26.816 85.0304 26.728C85.0304 26.64 85.0304 26.5667 85.0304 26.508C85.0011 26.1853 84.9718 25.8627 84.9424 25.54C84.9424 25.2173 85.0011 24.8947 85.1184 24.572C85.1771 24.4547 85.2064 24.3227 85.2064 24.176C85.2064 24.0293 85.2064 23.8827 85.2064 23.736C85.2064 23.472 85.2064 23.2227 85.2064 22.988C85.2358 22.724 85.3091 22.4747 85.4264 22.24C85.4264 22.152 85.3824 22.0053 85.2944 21.8C85.3531 21.6533 85.3971 21.5067 85.4264 21.36C85.4851 21.184 85.5291 21.0227 85.5584 20.876C85.6171 20.7293 85.6611 20.5973 85.6904 20.48C85.7198 20.3333 85.7491 20.2013 85.7784 20.084C85.9544 19.908 86.1158 19.8347 86.2624 19.864C86.5558 19.952 86.8491 19.9667 87.1424 19.908C87.4651 19.82 87.7731 19.7907 88.0664 19.82C88.1544 19.82 88.2424 19.8053 88.3304 19.776C88.4184 19.7173 88.5064 19.6733 88.5944 19.644C89.0931 19.4973 89.5038 19.512 89.8264 19.688C90.0318 20.04 90.1491 20.304 90.1784 20.48C90.2078 20.656 90.2371 21.0813 90.2664 21.756C90.3544 22.0787 90.5158 22.3867 90.7504 22.68C90.8091 22.7387 90.8971 22.7827 91.0144 22.812C91.1611 22.812 91.2638 22.7827 91.3224 22.724C91.4398 22.636 91.5424 22.5627 91.6304 22.504C91.7184 22.416 91.8064 22.3133 91.8944 22.196C92.0704 22.0493 92.2318 21.9027 92.3784 21.756C92.5544 21.58 92.7011 21.4333 92.8184 21.316C93.1411 21.1693 93.4491 21.0227 93.7424 20.876C94.0651 20.7293 94.4171 20.5827 94.7984 20.436H95.8104L95.8984 20.392C95.9278 20.392 95.9424 20.392 95.9424 20.392C95.9718 20.3627 96.0011 20.3627 96.0304 20.392L96.1624 20.348C96.5144 20.524 96.8224 20.568 97.0864 20.48C97.5558 20.3333 98.0104 20.392 98.4504 20.656C98.7144 20.7733 98.9638 20.8907 99.1984 21.008C99.4331 21.1253 99.6824 21.2573 99.9464 21.404C100.034 21.5213 100.137 21.6387 100.254 21.756C100.372 21.8733 100.474 21.9907 100.562 22.108Z" fill="#0A0A0A"/>
<path d="M125.401 38.52C125.489 38.7253 125.519 38.916 125.489 39.092C125.46 39.268 125.401 39.444 125.313 39.62C125.284 39.6493 125.225 39.6933 125.137 39.752C125.049 39.7813 124.976 39.8253 124.917 39.884C124.8 39.9133 124.697 39.928 124.609 39.928C124.521 39.928 124.419 39.9573 124.301 40.016C123.861 40.104 123.597 40.3387 123.509 40.72C123.48 40.7787 123.421 40.852 123.333 40.94C123.128 40.9693 122.981 40.9987 122.893 41.028C122.805 41.0867 122.629 41.1893 122.365 41.336C122.16 41.336 121.955 41.3653 121.749 41.424C121.544 41.4827 121.353 41.6 121.177 41.776C121.119 41.776 121.075 41.776 121.045 41.776C121.016 41.8053 120.972 41.82 120.913 41.82C120.796 41.8787 120.664 41.8493 120.517 41.732C120.371 41.644 120.297 41.5267 120.297 41.38V41.116C120.18 41.0573 120.033 41.0573 119.857 41.116C119.711 41.1747 119.593 41.116 119.505 40.94V40.28C119.417 40.2213 119.329 40.1773 119.241 40.148C119.183 40.0893 119.109 40.0453 119.021 40.016C118.904 39.7813 118.772 39.532 118.625 39.268C118.479 39.004 118.332 38.7693 118.185 38.564C118.068 38.476 117.965 38.4467 117.877 38.476C117.789 38.5053 117.716 38.5493 117.657 38.608C117.599 38.6667 117.555 38.74 117.525 38.828C117.496 38.8867 117.452 38.9453 117.393 39.004C117.335 39.0627 117.291 39.136 117.261 39.224C117.232 39.312 117.188 39.3853 117.129 39.444C116.748 39.62 116.367 39.7813 115.985 39.928C115.604 40.0453 115.237 40.148 114.885 40.236C114.68 40.3827 114.475 40.5147 114.269 40.632C114.064 40.7493 113.873 40.8667 113.697 40.984C113.521 41.0133 113.345 41.0573 113.169 41.116C112.993 41.1747 112.832 41.2187 112.685 41.248C112.509 41.16 112.333 41.1307 112.157 41.16C112.011 41.2187 111.82 41.2773 111.585 41.336C111.321 41.2773 111.043 41.204 110.749 41.116C110.456 41.0573 110.148 40.9987 109.825 40.94C109.737 40.9693 109.649 40.984 109.561 40.984C109.473 40.984 109.4 40.9987 109.341 41.028C109.224 40.9693 109.121 40.9107 109.033 40.852C108.975 40.7933 108.887 40.7493 108.769 40.72C108.623 40.6613 108.491 40.6613 108.373 40.72C108.256 40.7787 108.124 40.8373 107.977 40.896C107.831 40.8373 107.669 40.7933 107.493 40.764C107.317 40.764 107.141 40.7493 106.965 40.72C106.819 40.5733 106.687 40.4413 106.569 40.324C106.481 40.2067 106.423 40.06 106.393 39.884C106.335 39.8253 106.276 39.7813 106.217 39.752C106.159 39.6933 106.115 39.6493 106.085 39.62C105.968 39.2093 105.836 38.8573 105.689 38.564C105.279 37.684 105 36.716 104.853 35.66C104.795 35.6013 104.736 35.5427 104.677 35.484C104.619 35.396 104.545 35.308 104.457 35.22C104.428 34.956 104.399 34.7067 104.369 34.472C104.34 34.208 104.296 33.9293 104.237 33.636C104.296 33.46 104.325 33.2987 104.325 33.152C104.267 32.8587 104.208 32.5947 104.149 32.36C104.267 32.008 104.384 31.656 104.501 31.304C104.648 30.952 104.692 30.5853 104.633 30.204C104.692 30.0867 104.765 29.984 104.853 29.896C104.941 29.7787 105.015 29.676 105.073 29.588C105.337 29.2947 105.528 28.9573 105.645 28.576C105.733 28.2533 105.88 27.9747 106.085 27.74C106.32 27.5053 106.569 27.3147 106.833 27.168C107.156 27.0213 107.464 26.8747 107.757 26.728C108.08 26.552 108.388 26.4053 108.681 26.288C108.74 26.288 108.813 26.3027 108.901 26.332C109.019 26.332 109.107 26.3173 109.165 26.288C109.693 26.2 110.148 26.1707 110.529 26.2C110.705 26.2293 110.881 26.2293 111.057 26.2C111.233 26.1707 111.395 26.156 111.541 26.156L112.465 25.98C112.641 26.0093 112.817 26.0533 112.993 26.112C113.169 26.1707 113.345 26.156 113.521 26.068C113.58 26.068 113.624 26.0827 113.653 26.112C113.712 26.112 113.756 26.112 113.785 26.112C113.932 26.1707 114.064 26.244 114.181 26.332C114.299 26.3907 114.431 26.42 114.577 26.42C114.9 26.4787 115.105 26.42 115.193 26.244C115.164 25.7453 115.12 25.4227 115.061 25.276C115.032 25.1293 114.944 24.8947 114.797 24.572C114.709 24.396 114.651 24.22 114.621 24.044C114.592 23.8387 114.563 23.648 114.533 23.472C114.504 23.3547 114.475 23.252 114.445 23.164C114.445 23.0467 114.387 22.9293 114.269 22.812C113.888 22.6947 113.419 22.6067 112.861 22.548H112.597C112.333 22.6653 112.055 22.724 111.761 22.724C111.468 22.724 111.16 22.7533 110.837 22.812C110.632 22.8413 110.412 22.9 110.177 22.988C109.972 23.076 109.752 23.1493 109.517 23.208C109.283 23.3253 109.048 23.2667 108.813 23.032C108.725 22.768 108.681 22.504 108.681 22.24C108.711 21.9467 108.74 21.6533 108.769 21.36C108.711 21.1547 108.637 20.92 108.549 20.656C108.461 20.3627 108.417 20.0253 108.417 19.644L108.461 19.336C108.432 19.2773 108.373 19.2187 108.285 19.16C108.227 19.1013 108.168 19.0573 108.109 19.028C108.021 18.94 108.007 18.852 108.065 18.764C108.065 18.676 108.109 18.632 108.197 18.632C108.432 18.5733 108.652 18.5293 108.857 18.5C109.063 18.4707 109.268 18.4413 109.473 18.412L110.001 17.884C110.06 17.8547 110.133 17.84 110.221 17.84C110.896 17.9573 111.38 18.0013 111.673 17.972C111.996 17.9427 112.48 17.8253 113.125 17.62C113.448 17.6493 113.756 17.6933 114.049 17.752C114.372 17.8107 114.695 17.8253 115.017 17.796C115.105 17.884 115.193 17.972 115.281 18.06C115.399 18.1187 115.516 18.192 115.633 18.28C115.78 18.2213 115.927 18.1773 116.073 18.148C116.22 18.0893 116.352 18.0453 116.469 18.016C116.645 18.1333 116.836 18.2507 117.041 18.368C117.188 18.3973 117.305 18.368 117.393 18.28C117.511 18.192 117.628 18.148 117.745 18.148C118.009 18.1773 118.215 18.3093 118.361 18.544C118.537 18.7493 118.728 18.9253 118.933 19.072C119.109 19.1893 119.271 19.336 119.417 19.512C119.593 19.688 119.769 19.8493 119.945 19.996C120.004 20.084 120.063 20.172 120.121 20.26C120.18 20.348 120.224 20.436 120.253 20.524C120.4 20.6413 120.532 20.744 120.649 20.832C120.767 20.8907 120.869 20.9787 120.957 21.096C121.104 21.2133 121.251 21.3013 121.397 21.36C121.573 21.4187 121.705 21.5213 121.793 21.668C121.852 21.8147 121.911 21.976 121.969 22.152C122.028 22.2987 122.131 22.4307 122.277 22.548C122.365 22.8413 122.453 23.1493 122.541 23.472C122.629 23.7653 122.644 24.0733 122.585 24.396C122.585 24.5427 122.571 24.6747 122.541 24.792C122.6 24.9387 122.644 25.1 122.673 25.276C122.703 25.452 122.747 25.6133 122.805 25.76V25.98C122.805 26.068 122.791 26.1707 122.761 26.288C122.761 26.376 122.776 26.4493 122.805 26.508C122.864 26.684 122.937 26.816 123.025 26.904C123.025 27.08 122.952 27.2413 122.805 27.388C122.747 27.4173 122.673 27.4467 122.585 27.476C122.497 27.5053 122.424 27.5493 122.365 27.608C122.013 27.8133 121.969 28.0773 122.233 28.4C122.263 28.4293 122.307 28.488 122.365 28.576C122.453 28.6347 122.512 28.708 122.541 28.796C122.571 28.9133 122.585 29.0453 122.585 29.192C122.585 29.3093 122.6 29.4413 122.629 29.588C122.512 30.1453 122.292 30.6733 121.969 31.172C122.057 31.5827 122.189 31.9787 122.365 32.36C122.571 32.7413 122.747 33.1373 122.893 33.548C123.04 33.636 123.157 33.724 123.245 33.812C123.333 33.9 123.436 33.9733 123.553 34.032C123.583 34.12 123.597 34.1787 123.597 34.208C123.627 34.2373 123.641 34.2813 123.641 34.34C123.641 34.6333 123.671 34.9267 123.729 35.22C123.817 35.5133 123.92 35.792 124.037 36.056C124.155 36.32 124.272 36.5693 124.389 36.804C124.507 37.0387 124.653 37.2733 124.829 37.508C124.976 37.6253 125.093 37.7867 125.181 37.992C125.269 38.1973 125.343 38.3733 125.401 38.52ZM115.765 32.58C115.589 32.14 115.369 31.8467 115.105 31.7C114.783 31.5533 114.577 31.3627 114.489 31.128C114.46 31.0107 114.401 30.9373 114.313 30.908C114.225 30.8787 114.137 30.8493 114.049 30.82C113.932 30.82 113.785 30.8347 113.609 30.864C113.463 30.864 113.316 30.8787 113.169 30.908C112.993 30.908 112.817 30.8787 112.641 30.82C112.495 30.7613 112.348 30.7173 112.201 30.688C111.937 30.688 111.688 30.7613 111.453 30.908C111.336 30.996 111.233 31.084 111.145 31.172C111.057 31.2307 110.969 31.3187 110.881 31.436L110.309 32.492C110.368 32.668 110.441 32.8293 110.529 32.976C110.617 33.0933 110.617 33.2693 110.529 33.504C110.588 33.768 110.647 34.0467 110.705 34.34C110.793 34.604 110.911 34.868 111.057 35.132C111.116 35.1907 111.16 35.22 111.189 35.22C111.512 35.2787 111.835 35.308 112.157 35.308C112.48 35.308 112.788 35.2933 113.081 35.264C113.199 35.264 113.287 35.2493 113.345 35.22C113.668 35.044 114.064 34.8827 114.533 34.736C114.709 34.7067 114.871 34.5747 115.017 34.34C115.135 34.076 115.252 33.7973 115.369 33.504C115.487 33.1813 115.619 32.8733 115.765 32.58ZM106.437 39.796C106.437 39.796 106.423 39.796 106.393 39.796C106.393 39.796 106.393 39.8253 106.393 39.884C106.452 39.8253 106.467 39.796 106.437 39.796Z" fill="#0A0A0A"/>
<path d="M158.418 25.364C158.36 25.628 158.301 25.892 158.242 26.156C158.213 26.42 158.125 26.6693 157.978 26.904C157.861 27.168 157.773 27.432 157.714 27.696C157.656 27.96 157.597 28.224 157.538 28.488C157.597 28.6933 157.568 28.884 157.45 29.06C157.333 29.2067 157.274 29.3827 157.274 29.588C157.098 29.8813 156.952 30.1747 156.834 30.468C156.746 30.7613 156.673 31.04 156.614 31.304C156.321 31.92 156.013 32.492 155.69 33.02C155.544 33.284 155.382 33.548 155.206 33.812C155.06 34.076 154.898 34.3693 154.722 34.692C154.488 34.78 154.253 34.8533 154.018 34.912C153.842 35.1467 153.681 35.4107 153.534 35.704C153.417 35.9973 153.344 36.3053 153.314 36.628C153.314 36.6573 153.3 36.716 153.27 36.804C153.241 36.8627 153.212 36.9213 153.182 36.98C153.153 37.0973 153.109 37.2 153.05 37.288C153.021 37.376 152.977 37.4787 152.918 37.596C152.83 37.6547 152.742 37.728 152.654 37.816C152.566 37.904 152.478 37.9773 152.39 38.036C152.332 38.1827 152.273 38.344 152.214 38.52C152.156 38.696 152.097 38.8867 152.038 39.092C151.921 39.2093 151.789 39.3413 151.642 39.488C151.525 39.6347 151.408 39.7813 151.29 39.928C151.232 39.928 151.173 39.9427 151.114 39.972C151.085 39.972 151.041 39.972 150.982 39.972C150.777 39.9427 150.557 39.928 150.322 39.928C150.088 39.8987 149.853 39.9133 149.618 39.972C149.501 40.0013 149.384 40.016 149.266 40.016C149.149 40.016 149.017 40.016 148.87 40.016C148.665 39.9573 148.474 39.8987 148.298 39.84C148.122 39.752 147.961 39.6933 147.814 39.664C147.462 39.4293 147.272 39.1653 147.242 38.872C147.242 38.784 147.228 38.696 147.198 38.608C147.198 38.52 147.169 38.432 147.11 38.344C147.052 38.3147 146.993 38.3 146.934 38.3C146.905 38.3 146.861 38.2853 146.802 38.256C146.568 38.168 146.48 38.0067 146.538 37.772C146.538 37.7133 146.553 37.6547 146.582 37.596C146.612 37.5373 146.626 37.4787 146.626 37.42V36.98C146.333 36.7453 146.069 36.5253 145.834 36.32C145.688 35.8507 145.526 35.4107 145.35 35C145.204 34.56 145.057 34.12 144.91 33.68C144.881 33.6213 144.837 33.5773 144.778 33.548C144.72 33.4893 144.661 33.4307 144.602 33.372L144.382 33.152C144.353 33.0347 144.338 32.932 144.338 32.844C144.368 32.7267 144.353 32.6387 144.294 32.58C144.265 32.3453 144.118 32.184 143.854 32.096C143.766 32.096 143.693 32.1107 143.634 32.14C143.605 32.1987 143.576 32.272 143.546 32.36C143.517 32.448 143.473 32.5213 143.414 32.58C143.385 32.7853 143.312 32.9467 143.194 33.064C142.842 33.5333 142.637 34.1347 142.578 34.868C142.578 34.868 142.549 34.9707 142.49 35.176C142.432 35.264 142.358 35.3667 142.27 35.484C142.182 35.6013 142.094 35.7333 142.006 35.88C141.889 36.408 141.801 36.7453 141.742 36.892C141.713 37.0387 141.581 37.288 141.346 37.64C141.288 37.9627 141.258 38.3147 141.258 38.696C141.258 39.048 141.097 39.4147 140.774 39.796C140.804 39.7667 140.789 39.7813 140.73 39.84C140.701 39.8987 140.657 39.928 140.598 39.928C140.481 39.9573 140.349 39.9867 140.202 40.016C140.056 40.016 139.909 40.0453 139.762 40.104C139.645 40.1627 139.513 40.236 139.366 40.324C139.22 40.3827 139.088 40.456 138.97 40.544C138.853 40.544 138.721 40.5293 138.574 40.5C138.428 40.4707 138.281 40.456 138.134 40.456C138.017 40.4853 137.9 40.5293 137.782 40.588C137.694 40.6173 137.592 40.6613 137.474 40.72C137.386 40.7493 137.284 40.764 137.166 40.764C137.078 40.764 136.961 40.7787 136.814 40.808C136.785 40.896 136.741 40.9693 136.682 41.028C136.653 41.116 136.609 41.1893 136.55 41.248C136.492 41.1893 136.433 41.1453 136.374 41.116C136.345 41.116 136.316 41.1013 136.286 41.072C136.198 40.9253 136.11 40.764 136.022 40.588C135.964 40.412 135.89 40.2507 135.802 40.104C135.685 39.664 135.45 39.2533 135.098 38.872C134.805 38.5493 134.644 38.2413 134.614 37.948C134.438 37.3907 134.174 36.936 133.822 36.584C133.793 36.144 133.661 35.7333 133.426 35.352C133.221 34.9707 133.074 34.5013 132.986 33.944C132.986 33.944 132.986 33.8707 132.986 33.724C133.016 33.5773 133.016 33.4307 132.986 33.284C132.957 32.9027 132.884 32.536 132.766 32.184C132.649 31.8027 132.517 31.4507 132.37 31.128C132.165 30.6587 131.93 30.2187 131.666 29.808C131.402 29.3973 131.138 29.0013 130.874 28.62C130.669 28.0627 130.449 27.52 130.214 26.992C129.98 26.464 129.672 25.9947 129.29 25.584C129.114 25.1733 129.114 24.792 129.29 24.44L129.774 23.912C129.892 23.7947 129.994 23.7067 130.082 23.648C130.2 23.56 130.302 23.472 130.39 23.384C130.537 23.2373 130.684 23.0907 130.83 22.944C130.977 22.7973 131.124 22.636 131.27 22.46C131.388 22.4013 131.52 22.3427 131.666 22.284C131.813 22.196 131.96 22.108 132.106 22.02C132.341 21.8733 132.576 21.756 132.81 21.668C133.074 21.5507 133.338 21.4333 133.602 21.316C133.808 21.3747 133.984 21.4627 134.13 21.58C134.277 21.6973 134.438 21.8293 134.614 21.976C134.761 22.2107 134.922 22.46 135.098 22.724C135.274 22.988 135.45 23.2373 135.626 23.472C135.597 23.6773 135.626 23.8387 135.714 23.956C135.832 24.0733 135.92 24.22 135.978 24.396L136.066 25.1C136.125 25.3053 136.228 25.4813 136.374 25.628C136.521 25.7747 136.521 25.9653 136.374 26.2C136.697 26.4053 136.961 26.64 137.166 26.904C137.372 27.168 137.533 27.4613 137.65 27.784C137.709 27.9013 137.753 28.0187 137.782 28.136C137.841 28.2533 137.914 28.3853 138.002 28.532C138.325 29.06 138.516 29.6907 138.574 30.424C138.574 30.4533 138.589 30.4827 138.618 30.512C138.648 30.512 138.662 30.5267 138.662 30.556C138.721 30.5853 138.75 30.6147 138.75 30.644C138.78 30.6733 138.809 30.688 138.838 30.688C138.985 30.688 139.058 30.6587 139.058 30.6C139.234 30.1893 139.41 29.764 139.586 29.324C139.792 28.884 139.997 28.444 140.202 28.004C140.32 27.7987 140.408 27.5493 140.466 27.256C140.613 26.9333 140.73 26.596 140.818 26.244C140.906 25.892 141.038 25.5547 141.214 25.232C141.244 25.1733 141.273 25.1147 141.302 25.056C141.332 24.968 141.346 24.9093 141.346 24.88C141.434 24.2053 141.61 23.604 141.874 23.076C141.933 22.988 141.962 22.9 141.962 22.812C141.992 22.724 142.021 22.6507 142.05 22.592C142.138 22.4453 142.241 22.372 142.358 22.372C142.505 22.3427 142.637 22.284 142.754 22.196C142.842 22.1373 142.93 22.0933 143.018 22.064C143.106 22.0053 143.194 21.9467 143.282 21.888C143.928 22.0347 144.558 22.108 145.174 22.108C145.82 22.0787 146.465 22.0493 147.11 22.02C147.14 22.0493 147.169 22.0787 147.198 22.108C147.257 22.108 147.286 22.1227 147.286 22.152C147.492 22.856 147.814 23.4427 148.254 23.912C148.372 24.1467 148.46 24.3667 148.518 24.572C148.606 24.7773 148.694 24.968 148.782 25.144C148.87 25.32 148.958 25.496 149.046 25.672C149.164 25.8187 149.252 25.9653 149.31 26.112C149.457 26.7573 149.604 27.388 149.75 28.004C149.897 28.62 150.029 29.2213 150.146 29.808C150.205 29.9253 150.278 30.0133 150.366 30.072C150.454 30.1013 150.542 30.1307 150.63 30.16C150.748 30.0427 150.777 29.9253 150.718 29.808C150.689 29.6907 150.718 29.5293 150.806 29.324C150.924 29.0893 151.026 28.9573 151.114 28.928C151.29 28.752 151.378 28.5027 151.378 28.18C151.437 28.0333 151.481 27.9013 151.51 27.784C151.54 27.6667 151.584 27.5493 151.642 27.432C151.76 27.256 151.848 27.0507 151.906 26.816C151.965 26.5813 152.009 26.3613 152.038 26.156C152.097 25.8627 152.156 25.584 152.214 25.32C152.302 25.056 152.39 24.7773 152.478 24.484C152.566 24.3373 152.654 24.2053 152.742 24.088C152.83 23.9413 152.904 23.8093 152.962 23.692C153.109 23.3987 153.27 23.1347 153.446 22.9C153.622 22.636 153.71 22.3573 153.71 22.064C153.945 21.9173 154.136 21.8293 154.282 21.8C154.458 21.7707 154.649 21.7413 154.854 21.712C155.001 21.8293 155.162 21.9467 155.338 22.064C155.544 22.152 155.72 22.284 155.866 22.46C155.954 22.5773 156.057 22.68 156.174 22.768C156.321 22.8267 156.453 22.9147 156.57 23.032C156.717 23.1493 156.834 23.296 156.922 23.472C157.04 23.648 157.186 23.78 157.362 23.868C157.538 23.956 157.7 24.0733 157.846 24.22C157.993 24.3373 158.14 24.44 158.286 24.528C158.404 24.8213 158.448 25.1 158.418 25.364Z" fill="#0A0A0A"/>
<path d="M169.814 17.18C169.902 17.3853 169.932 17.6053 169.902 17.84C169.873 18.0453 169.829 18.2507 169.77 18.456C169.741 18.632 169.682 18.808 169.594 18.984C169.506 19.1307 169.433 19.2773 169.374 19.424C169.257 19.6 169.125 19.7613 168.978 19.908C168.861 20.0547 168.744 20.2013 168.626 20.348C168.538 20.3773 168.465 20.436 168.406 20.524C168.348 20.5827 168.274 20.6413 168.186 20.7C167.981 20.8467 167.658 20.9933 167.218 21.14C166.778 21.2573 166.426 21.316 166.162 21.316C166.016 21.316 165.898 21.2867 165.81 21.228C165.634 21.228 165.458 21.228 165.282 21.228C165.106 21.1987 164.945 21.184 164.798 21.184C164.71 21.1253 164.608 21.0667 164.49 21.008C164.402 20.9493 164.329 20.8907 164.27 20.832C164.124 20.7733 163.962 20.744 163.786 20.744C163.64 20.744 163.493 20.744 163.346 20.744C163.229 20.656 163.082 20.5827 162.906 20.524C162.76 20.436 162.613 20.3627 162.466 20.304L162.202 19.512C162.232 19.2773 162.261 19.028 162.29 18.764C162.32 18.4707 162.29 18.1773 162.202 17.884C162.114 17.8253 162.114 17.752 162.202 17.664C162.29 17.4587 162.29 17.2533 162.202 17.048C162.114 16.8427 162.114 16.6373 162.202 16.432C162.232 16.3733 162.246 16.2853 162.246 16.168C162.158 15.992 162.158 15.8307 162.246 15.684C162.334 15.508 162.408 15.3613 162.466 15.244C162.437 15.156 162.422 15.068 162.422 14.98C162.422 14.8627 162.422 14.7747 162.422 14.716C162.452 14.6867 162.466 14.6573 162.466 14.628C162.496 14.5693 162.54 14.5253 162.598 14.496C162.833 14.4373 163.024 14.3347 163.17 14.188C163.346 14.012 163.537 13.88 163.742 13.792C163.948 13.616 164.168 13.4693 164.402 13.352C164.666 13.2347 164.916 13.1173 165.15 13C165.385 13 165.59 13 165.766 13C165.942 13 166.118 13.0293 166.294 13.088C166.382 13.1173 166.485 13.132 166.602 13.132C166.72 13.132 166.837 13.132 166.954 13.132C167.365 13.0733 167.688 13.2347 167.922 13.616C167.981 13.7627 168.084 13.8507 168.23 13.88C168.377 13.9093 168.509 13.9533 168.626 14.012C168.92 14.276 169.11 14.6133 169.198 15.024C169.257 15.2 169.316 15.376 169.374 15.552C169.462 15.728 169.521 15.904 169.55 16.08C169.609 16.256 169.653 16.4467 169.682 16.652C169.741 16.828 169.785 17.004 169.814 17.18ZM169.55 27.3C169.492 27.476 169.462 27.6813 169.462 27.916C169.462 28.1213 169.462 28.3413 169.462 28.576C169.492 28.7813 169.492 29.0013 169.462 29.236C169.433 29.4413 169.418 29.6467 169.418 29.852L169.11 30.292C169.257 30.4387 169.345 30.6 169.374 30.776C169.404 30.952 169.418 31.1427 169.418 31.348C169.418 31.5533 169.418 31.7733 169.418 32.008C169.418 32.2133 169.404 32.4333 169.374 32.668C169.345 32.8733 169.286 33.0933 169.198 33.328C169.11 33.5627 169.037 33.812 168.978 34.076C168.978 34.3693 168.964 34.7213 168.934 35.132C168.934 35.5133 168.949 35.8947 168.978 36.276C169.008 36.8333 168.978 37.4053 168.89 37.992C168.802 38.5493 168.626 39.0773 168.362 39.576C168.362 39.8107 168.392 40.0453 168.45 40.28C168.509 40.4853 168.568 40.7053 168.626 40.94C168.626 40.9693 168.612 40.9987 168.582 41.028C168.553 41.0867 168.538 41.1453 168.538 41.204C168.392 41.4093 168.216 41.5853 168.01 41.732C167.981 41.732 167.952 41.7467 167.922 41.776H167.746C167.424 41.776 167.086 41.7907 166.734 41.82C166.412 41.8787 166.045 41.864 165.634 41.776C165.517 41.7173 165.385 41.644 165.238 41.556C165.121 41.468 164.989 41.3947 164.842 41.336C164.725 41.336 164.578 41.3213 164.402 41.292C164.256 41.292 164.109 41.2773 163.962 41.248C163.728 40.984 163.493 40.7053 163.258 40.412C163.17 40.3533 163.068 40.3093 162.95 40.28C162.833 40.2507 162.716 40.2067 162.598 40.148C162.393 40.0013 162.32 39.7667 162.378 39.444C162.437 39.1213 162.51 38.8427 162.598 38.608C162.686 38.2267 162.672 37.86 162.554 37.508L162.378 36.892C162.378 36.6573 162.364 36.4373 162.334 36.232C162.305 36.0267 162.305 35.8213 162.334 35.616C162.364 35.3227 162.364 35.044 162.334 34.78C162.334 34.516 162.334 34.2373 162.334 33.944C162.364 33.5333 162.378 33.1373 162.378 32.756C162.378 32.3453 162.378 31.9493 162.378 31.568C162.378 31.4213 162.393 31.3333 162.422 31.304C162.569 31.0693 162.642 30.8493 162.642 30.644C162.642 30.4093 162.642 30.1747 162.642 29.94C162.613 29.7053 162.613 29.4707 162.642 29.236C162.701 28.972 162.701 28.7373 162.642 28.532C162.642 28.268 162.642 28.0187 162.642 27.784C162.642 27.52 162.657 27.256 162.686 26.992C162.716 26.8453 162.73 26.6987 162.73 26.552C162.76 26.376 162.745 26.1853 162.686 25.98C162.95 25.8627 163.17 25.7747 163.346 25.716C163.552 25.6573 163.742 25.628 163.918 25.628C164.036 25.628 164.153 25.628 164.27 25.628C164.417 25.628 164.549 25.6133 164.666 25.584C164.96 25.5253 165.209 25.4667 165.414 25.408C165.561 25.4373 165.678 25.496 165.766 25.584C165.884 25.6427 166.001 25.7013 166.118 25.76C166.324 25.76 166.529 25.716 166.734 25.628C166.94 25.5987 167.116 25.6133 167.262 25.672C167.438 25.7307 167.57 25.8773 167.658 26.112C167.688 26.1413 167.702 26.1707 167.702 26.2C167.732 26.2293 167.761 26.2587 167.79 26.288L168.098 26.464C168.304 26.4933 168.48 26.464 168.626 26.376C168.773 26.2587 168.92 26.1853 169.066 26.156C169.242 26.156 169.345 26.2293 169.374 26.376C169.462 26.5813 169.521 26.8893 169.55 27.3Z" fill="#0A0A0A"/>
<path d="M191.056 34.208C191.056 34.4427 191.056 34.692 191.056 34.956C191.085 35.1907 191.071 35.4253 191.012 35.66C190.953 35.8067 190.939 35.9387 190.968 36.056C191.027 36.2027 191.027 36.364 190.968 36.54C190.939 36.6867 190.939 36.8333 190.968 36.98C191.027 37.1853 191.041 37.42 191.012 37.684C190.983 37.9187 190.983 38.1533 191.012 38.388C190.895 38.5933 190.704 38.696 190.44 38.696C190.147 38.696 189.824 38.7107 189.472 38.74C189.149 38.7693 188.827 38.8427 188.504 38.96C188.328 39.0187 188.137 39.048 187.932 39.048C187.727 39.048 187.521 39.048 187.316 39.048C187.14 38.9307 187.008 38.828 186.92 38.74C186.568 38.8573 186.275 38.7253 186.04 38.344C185.923 38.168 185.82 37.9773 185.732 37.772C185.673 37.5667 185.644 37.3467 185.644 37.112C185.673 36.8773 185.673 36.6427 185.644 36.408C185.615 36.1733 185.615 35.924 185.644 35.66C185.703 35.22 185.644 34.7947 185.468 34.384C185.439 34.296 185.409 34.208 185.38 34.12C185.351 34.032 185.336 33.944 185.336 33.856C185.336 33.5333 185.321 33.2107 185.292 32.888C185.263 32.536 185.204 32.2133 185.116 31.92C185.087 31.7733 185.057 31.6413 185.028 31.524C185.028 31.3773 185.028 31.2453 185.028 31.128C184.94 30.776 184.749 30.4973 184.456 30.292C184.427 30.0573 184.397 29.852 184.368 29.676C184.339 29.4707 184.295 29.2507 184.236 29.016C184.177 28.9573 184.06 28.8693 183.884 28.752C183.767 28.664 183.62 28.5907 183.444 28.532C183.297 28.4733 183.151 28.4 183.004 28.312C182.945 28.2533 182.872 28.18 182.784 28.092C182.725 27.9747 182.652 27.872 182.564 27.784H182.3C182.183 27.8133 182.08 27.8427 181.992 27.872C181.904 27.872 181.787 27.8573 181.64 27.828C181.581 27.7987 181.508 27.7987 181.42 27.828C181.332 27.828 181.259 27.828 181.2 27.828C181.053 28.0333 180.907 28.2533 180.76 28.488C180.643 28.576 180.525 28.664 180.408 28.752C180.32 28.8107 180.247 28.8693 180.188 28.928C180.1 29.016 180.056 29.104 180.056 29.192L179.748 30.116C179.807 30.292 179.807 30.468 179.748 30.644C179.689 30.7907 179.704 30.952 179.792 31.128C179.821 31.216 179.821 31.304 179.792 31.392C179.763 31.48 179.733 31.5533 179.704 31.612C179.616 31.7293 179.601 31.8173 179.66 31.876C179.719 31.9347 179.763 32.008 179.792 32.096C179.821 32.1253 179.851 32.184 179.88 32.272C179.88 32.624 179.88 32.9613 179.88 33.284C179.88 33.6067 179.821 33.9293 179.704 34.252C179.733 34.3693 179.748 34.4867 179.748 34.604C179.777 34.692 179.807 34.8093 179.836 34.956C179.807 35.132 179.763 35.3373 179.704 35.572C179.675 35.7773 179.675 35.9973 179.704 36.232C179.733 36.3787 179.733 36.54 179.704 36.716C179.704 36.892 179.675 37.068 179.616 37.244C179.587 37.332 179.587 37.42 179.616 37.508C179.704 37.86 179.704 38.168 179.616 38.432C179.528 38.696 179.367 38.9747 179.132 39.268C179.103 39.2973 179.044 39.3267 178.956 39.356C178.868 39.3853 178.795 39.4147 178.736 39.444C178.677 39.5027 178.619 39.5467 178.56 39.576C178.501 39.576 178.443 39.5907 178.384 39.62C178.267 39.62 178.149 39.62 178.032 39.62C177.915 39.5907 177.812 39.576 177.724 39.576C177.607 39.6053 177.504 39.6493 177.416 39.708C177.357 39.7373 177.255 39.796 177.108 39.884C176.727 39.8253 176.331 39.752 175.92 39.664C175.539 39.576 175.157 39.6053 174.776 39.752C174.6 39.7227 174.453 39.6493 174.336 39.532C174.219 39.4147 174.116 39.2827 174.028 39.136C173.911 38.96 173.837 38.7693 173.808 38.564C173.779 38.3293 173.735 38.1093 173.676 37.904C173.735 37.4053 173.764 37.068 173.764 36.892C173.764 36.6867 173.72 36.2467 173.632 35.572C173.72 35.1027 173.779 34.6333 173.808 34.164C173.837 33.6653 173.852 33.1813 173.852 32.712C173.852 32.096 173.852 31.4653 173.852 30.82C173.852 30.1747 173.867 29.5293 173.896 28.884C173.896 28.708 173.911 28.532 173.94 28.356C173.969 28.18 173.999 28.0187 174.028 27.872C174.087 27.5493 174.145 27.2413 174.204 26.948C174.263 26.6547 174.336 26.376 174.424 26.112C174.483 25.9067 174.585 25.7307 174.732 25.584C174.879 25.4373 174.981 25.2613 175.04 25.056C175.099 24.6453 175.216 24.2933 175.392 24C175.597 23.6773 175.803 23.3693 176.008 23.076C176.155 22.6653 176.419 22.504 176.8 22.592C176.859 22.592 176.888 22.5773 176.888 22.548C176.976 22.46 176.991 22.3427 176.932 22.196C176.903 22.0493 176.947 21.9173 177.064 21.8C177.328 21.5653 177.636 21.3893 177.988 21.272C178.34 21.1253 178.663 20.9933 178.956 20.876C179.22 20.876 179.396 20.9053 179.484 20.964C179.865 21.0813 180.232 21.0813 180.584 20.964C180.848 20.9053 181.083 20.9787 181.288 21.184C181.581 21.2427 181.86 21.3013 182.124 21.36C182.388 21.4187 182.667 21.4773 182.96 21.536C183.077 21.5067 183.195 21.492 183.312 21.492C183.429 21.4627 183.547 21.4333 183.664 21.404C183.957 21.5213 184.192 21.6973 184.368 21.932C184.573 22.1373 184.779 22.3573 184.984 22.592C185.131 22.7093 185.292 22.7533 185.468 22.724C185.644 22.6947 185.835 22.7093 186.04 22.768C186.187 22.9147 186.333 23.076 186.48 23.252C186.656 23.428 186.832 23.5893 187.008 23.736C187.037 23.8533 187.067 23.9707 187.096 24.088C187.155 24.176 187.199 24.2787 187.228 24.396C187.375 24.4253 187.477 24.4987 187.536 24.616C187.595 24.7333 187.639 24.836 187.668 24.924C187.961 25.0413 188.255 25.1293 188.548 25.188C188.695 25.3347 188.827 25.5107 188.944 25.716C189.061 25.892 189.252 25.98 189.516 25.98C189.575 26.2733 189.633 26.5373 189.692 26.772C189.751 27.0067 189.809 27.2413 189.868 27.476C189.927 27.916 190.029 28.2973 190.176 28.62C190.293 28.8547 190.396 29.104 190.484 29.368C190.572 29.6027 190.616 29.8667 190.616 30.16C190.645 30.336 190.704 30.4973 190.792 30.644C190.909 30.7907 190.997 30.952 191.056 31.128C191.027 31.2453 190.997 31.3627 190.968 31.48C190.968 31.5973 190.968 31.7293 190.968 31.876C190.968 31.9933 190.968 32.096 190.968 32.184C190.997 32.272 191.027 32.3893 191.056 32.536C191.056 32.5947 191.056 32.6827 191.056 32.8C191.085 32.888 191.085 32.9613 191.056 33.02C190.997 33.2253 190.983 33.4307 191.012 33.636C191.041 33.8413 191.056 34.032 191.056 34.208Z" fill="#0A0A0A"/>
<path d="M214.394 30.248C214.364 30.2773 214.35 30.3213 214.35 30.38C214.379 30.4093 214.379 30.4533 214.35 30.512C214.262 30.8053 214.232 31.084 214.262 31.348C214.262 31.6707 214.174 32.008 213.998 32.36C214.056 32.4773 214.1 32.6093 214.13 32.756C214.188 32.8733 214.232 33.0053 214.262 33.152C214.203 33.4747 214.13 33.812 214.042 34.164C213.983 34.516 214.056 34.8533 214.262 35.176C214.232 35.352 214.188 35.528 214.13 35.704C214.071 35.88 214.012 36.0413 213.954 36.188C213.924 36.3347 213.88 36.4813 213.822 36.628C213.792 36.7747 213.748 36.9653 213.69 37.2C213.69 37.1413 213.675 37.1267 213.646 37.156C213.646 37.1853 213.66 37.2293 213.69 37.288C213.807 37.7573 213.807 38.212 213.69 38.652C213.572 39.092 213.426 39.532 213.25 39.972C213.22 40.0013 213.191 40.06 213.162 40.148C213.132 40.2067 213.088 40.2653 213.03 40.324C212.707 40.8813 212.399 41.4533 212.106 42.04C211.842 42.6267 211.563 43.2133 211.27 43.8C211.24 43.9173 211.182 44.0493 211.094 44.196C211.006 44.3427 210.932 44.4893 210.874 44.636C210.756 44.812 210.654 44.944 210.566 45.032C210.36 45.208 210.14 45.384 209.906 45.56C209.671 45.7653 209.436 45.956 209.202 46.132C208.908 46.2493 208.659 46.4107 208.454 46.616C208.248 46.8213 208.058 47.0707 207.882 47.364C207.676 47.4227 207.486 47.5107 207.31 47.628C207.134 47.6867 206.972 47.804 206.826 47.98C206.767 48.0973 206.664 48.156 206.518 48.156C206.371 48.1853 206.239 48.2587 206.122 48.376C206.034 48.4933 205.916 48.5813 205.77 48.64C205.506 48.728 205.271 48.8747 205.066 49.08C204.802 49.256 204.523 49.388 204.23 49.476C204.083 49.5053 203.936 49.564 203.79 49.652C203.643 49.7693 203.511 49.8573 203.394 49.916C203.335 49.8867 203.291 49.872 203.262 49.872C203.232 49.872 203.218 49.872 203.218 49.872L201.898 48.552C201.839 48.024 201.78 47.628 201.722 47.364C201.692 47.1293 201.619 46.9093 201.502 46.704C201.414 46.528 201.238 46.2787 200.974 45.956C201.003 45.8973 201.018 45.8533 201.018 45.824C201.018 45.7947 201.032 45.7653 201.062 45.736C201.15 45.6773 201.252 45.604 201.37 45.516C201.487 45.428 201.604 45.3693 201.722 45.34C201.956 45.1933 202.162 45.032 202.338 44.856C202.514 44.7093 202.704 44.5627 202.91 44.416C203.086 44.2693 203.276 44.1227 203.482 43.976C203.687 43.8587 203.892 43.7413 204.098 43.624C204.303 43.4773 204.494 43.316 204.67 43.14C204.875 42.9933 205.051 42.8173 205.198 42.612C205.286 42.4947 205.374 42.392 205.462 42.304C205.55 42.216 205.638 42.128 205.726 42.04C205.755 41.9227 205.77 41.8053 205.77 41.688C205.77 41.6 205.784 41.512 205.814 41.424C205.931 41.1307 205.916 40.7933 205.77 40.412V40.324L206.078 39.884C206.078 39.9133 206.092 39.84 206.122 39.664C206.18 39.488 206.21 39.4 206.21 39.4C206.21 39.136 206.195 38.9307 206.166 38.784C206.166 38.608 206.166 38.4027 206.166 38.168C206.048 38.0213 205.96 37.948 205.902 37.948C205.872 37.9187 205.828 37.9333 205.77 37.992C205.652 38.1093 205.506 38.1973 205.33 38.256C205.154 38.3147 204.978 38.3733 204.802 38.432C204.772 38.432 204.714 38.4613 204.626 38.52C204.538 38.5787 204.464 38.5933 204.406 38.564L203.834 38.96C203.804 38.96 203.775 38.9747 203.746 39.004C203.746 39.004 203.731 39.004 203.702 39.004H202.602C202.514 38.8867 202.411 38.784 202.294 38.696C202.176 38.608 202.074 38.5053 201.986 38.388C201.78 38.3293 201.619 38.3293 201.502 38.388C201.414 38.4173 201.296 38.432 201.15 38.432L200.402 38.3H199.786C199.58 38.1533 199.39 38.0213 199.214 37.904C199.038 37.7573 198.847 37.6253 198.642 37.508C198.143 37.5373 197.82 37.552 197.674 37.552C197.527 37.5227 197.278 37.4053 196.926 37.2C196.867 37.112 196.823 37.024 196.794 36.936C196.764 36.848 196.72 36.76 196.662 36.672C196.574 36.496 196.5 36.32 196.442 36.144C196.412 35.9387 196.354 35.7627 196.266 35.616C196.148 35.4987 196.09 35.3373 196.09 35.132C196.119 34.8973 196.09 34.692 196.002 34.516C195.914 34.3107 195.84 34.1053 195.782 33.9C195.752 33.6947 195.679 33.504 195.562 33.328C195.444 33.152 195.356 32.976 195.298 32.8C195.327 32.4773 195.239 32.184 195.034 31.92C194.975 31.5093 194.887 31.128 194.77 30.776C194.916 30.248 194.99 29.808 194.99 29.456C194.99 29.2213 195.004 29.016 195.034 28.84C195.092 28.6347 195.136 28.4293 195.166 28.224C195.136 28.1653 195.107 28.1067 195.078 28.048C195.048 27.96 195.004 27.9013 194.946 27.872H194.99L195.254 27.608C195.342 27.5493 195.415 27.4027 195.474 27.168C195.444 27.0507 195.415 26.948 195.386 26.86C195.356 26.7427 195.327 26.6253 195.298 26.508C195.298 26.3613 195.312 26.2733 195.342 26.244C195.635 26.0093 195.811 25.8333 195.87 25.716C195.928 25.5987 196.016 25.3493 196.134 24.968C196.163 24.9387 196.207 24.9093 196.266 24.88C196.354 24.8507 196.412 24.8213 196.442 24.792C196.442 24.792 196.53 24.7333 196.706 24.616C196.764 24.4693 196.823 24.3227 196.882 24.176C196.97 24 197.043 23.8093 197.102 23.604C197.336 23.3693 197.586 23.1493 197.85 22.944C198.143 22.7387 198.436 22.548 198.73 22.372C199.111 22.1373 199.36 21.976 199.478 21.888C199.595 21.7707 199.815 21.5507 200.138 21.228C200.343 21.14 200.548 21.052 200.754 20.964C200.988 20.8467 201.208 20.7 201.414 20.524C201.56 20.436 201.707 20.348 201.854 20.26C202 20.172 202.132 20.0987 202.25 20.04C202.396 20.0693 202.514 20.084 202.602 20.084C202.719 20.084 202.822 20.084 202.91 20.084C203.086 20.0547 203.218 19.9813 203.306 19.864C203.394 19.7173 203.496 19.6 203.614 19.512C203.907 19.424 204.23 19.4093 204.582 19.468C204.728 19.468 204.875 19.4827 205.022 19.512C205.198 19.512 205.359 19.512 205.506 19.512C205.828 19.512 206.136 19.512 206.43 19.512C206.752 19.4827 207.046 19.424 207.31 19.336C207.544 19.4827 207.75 19.644 207.926 19.82C208.131 19.9667 208.336 20.0693 208.542 20.128C208.6 20.216 208.659 20.2893 208.718 20.348C208.776 20.4067 208.82 20.4653 208.85 20.524C208.967 20.7 209.084 20.7147 209.202 20.568C209.26 20.5093 209.304 20.4653 209.334 20.436C209.363 20.4067 209.407 20.3773 209.466 20.348C209.495 20.3187 209.524 20.2893 209.554 20.26C209.612 20.2013 209.656 20.1573 209.686 20.128C209.832 20.2453 209.994 20.3773 210.17 20.524C210.346 20.6413 210.507 20.7587 210.654 20.876C210.8 20.9933 210.947 21.1253 211.094 21.272C211.27 21.3893 211.431 21.492 211.578 21.58C211.695 21.6973 211.886 21.7853 212.15 21.844C212.208 21.9613 212.267 22.0787 212.326 22.196C212.384 22.3133 212.443 22.4307 212.502 22.548C212.648 22.812 212.78 23.076 212.898 23.34C213.044 23.604 213.206 23.8533 213.382 24.088C213.704 24.4987 213.91 24.9533 213.998 25.452C213.998 25.6573 213.954 25.8627 213.866 26.068C213.807 26.2733 213.807 26.5373 213.866 26.86C213.924 27.0067 213.983 27.1827 214.042 27.388C214.13 27.564 214.203 27.7547 214.262 27.96C214.32 28.2533 214.32 28.532 214.262 28.796C214.232 29.0307 214.188 29.28 214.13 29.544C214.188 29.6613 214.232 29.7787 214.262 29.896C214.291 29.984 214.335 30.1013 214.394 30.248ZM208.102 30.248C207.955 30.0427 207.838 29.8373 207.75 29.632C207.72 29.4853 207.676 29.3387 207.618 29.192C207.588 29.0453 207.574 28.9133 207.574 28.796C207.544 28.6493 207.53 28.5027 207.53 28.356C207.53 28.18 207.515 28.0187 207.486 27.872C207.456 27.7253 207.442 27.5787 207.442 27.432C207.442 27.256 207.368 27.1093 207.222 26.992C207.134 26.9333 207.016 26.8893 206.87 26.86C206.752 26.8307 206.62 26.7867 206.474 26.728C206.356 26.6107 206.224 26.508 206.078 26.42C205.96 26.3027 205.843 26.2147 205.726 26.156C205.608 26.1267 205.506 26.112 205.418 26.112C205.154 26.1413 204.89 26.1853 204.626 26.244C204.391 26.2733 204.142 26.288 203.878 26.288C203.819 26.288 203.746 26.3027 203.658 26.332C203.57 26.3613 203.496 26.3907 203.438 26.42C203.291 26.5667 203.115 26.6693 202.91 26.728C202.734 26.7573 202.558 26.8013 202.382 26.86C202.264 26.8893 202.132 26.948 201.986 27.036C201.839 27.124 201.736 27.2413 201.678 27.388C201.59 27.564 201.472 27.696 201.326 27.784C201.208 27.8427 201.091 27.9013 200.974 27.96C200.856 28.0773 200.783 28.1947 200.754 28.312C200.754 28.4 200.739 28.488 200.71 28.576C200.68 28.6933 200.636 28.796 200.578 28.884C200.519 28.9427 200.46 29.016 200.402 29.104C200.578 29.6613 200.739 30.1307 200.886 30.512C201.032 30.864 201.208 31.216 201.414 31.568C201.443 31.6853 201.443 31.788 201.414 31.876C201.414 31.9347 201.443 32.008 201.502 32.096C201.707 32.1253 201.898 32.1253 202.074 32.096C202.25 32.0667 202.411 31.9933 202.558 31.876C202.587 31.8467 202.631 31.8467 202.69 31.876C202.748 31.876 202.792 31.876 202.822 31.876C202.939 31.9933 203.042 32.1107 203.13 32.228C203.218 32.316 203.306 32.404 203.394 32.492C203.628 32.58 203.848 32.6533 204.054 32.712C204.259 32.7707 204.464 32.756 204.67 32.668C204.846 32.5507 204.992 32.404 205.11 32.228C205.227 32.0227 205.388 31.8907 205.594 31.832C205.711 31.832 205.828 31.8467 205.946 31.876C206.092 31.876 206.239 31.876 206.386 31.876C206.444 31.8173 206.518 31.7587 206.606 31.7C206.723 31.6413 206.811 31.5827 206.87 31.524C207.016 31.3773 207.148 31.2453 207.266 31.128C207.412 31.0107 207.574 30.908 207.75 30.82C207.955 30.6733 208.072 30.4827 208.102 30.248Z" fill="#0A0A0A"/>
<path d="M96.7442 63.112C96.6856 63.464 96.6416 63.816 96.6122 64.168C96.6122 64.4907 96.6122 64.828 96.6122 65.18C96.6122 65.5907 96.5976 65.9867 96.5682 66.368C96.5682 66.7493 96.5389 67.1453 96.4802 67.556C96.4509 67.6147 96.4362 67.7027 96.4362 67.82C96.4656 68.1133 96.5096 68.4067 96.5682 68.7C96.6562 68.964 96.6709 69.2133 96.6122 69.448C96.5536 69.5947 96.5389 69.7413 96.5682 69.888C96.5976 70.0347 96.5829 70.1813 96.5242 70.328C96.4949 70.3867 96.4656 70.4453 96.4362 70.504C96.4069 70.5627 96.3776 70.6213 96.3482 70.68C96.2016 70.7093 96.0549 70.7387 95.9082 70.768C95.7909 70.768 95.6589 70.768 95.5122 70.768C95.4536 70.7973 95.3656 70.856 95.2482 70.944C95.1602 71.0027 95.0722 71.0613 94.9842 71.12C94.8669 71.0613 94.7642 71.0027 94.6762 70.944C94.6176 70.8853 94.5442 70.8413 94.4562 70.812C94.3976 70.812 94.3242 70.812 94.2362 70.812C94.1482 70.7827 94.0749 70.7827 94.0162 70.812C93.8109 70.9 93.5322 70.9293 93.1802 70.9C92.8576 70.8413 92.5789 70.812 92.3442 70.812C92.0509 70.812 91.7722 70.856 91.5082 70.944C91.2736 71.0027 91.0242 71.0907 90.7602 71.208C90.5549 71.3253 90.3349 71.3987 90.1002 71.428C89.8949 71.428 89.6749 71.472 89.4402 71.56C89.2936 71.7653 89.2349 71.956 89.2642 72.132C89.3229 72.3667 89.3669 72.6307 89.3962 72.924C89.4549 73.188 89.4256 73.4667 89.3082 73.76C89.3082 73.8773 89.3229 73.9507 89.3522 73.98C89.4696 74.2733 89.5282 74.5667 89.5282 74.86C89.5282 75.1533 89.4989 75.4613 89.4402 75.784C89.4109 76.0773 89.3962 76.3707 89.3962 76.664C89.3962 76.928 89.3669 77.2213 89.3082 77.544C89.2496 77.8667 89.2642 78.16 89.3522 78.424C89.3816 78.6 89.3962 78.776 89.3962 78.952C89.3962 79.128 89.3962 79.2893 89.3962 79.436C89.3669 79.6413 89.3522 79.7 89.3522 79.612C89.3522 79.4947 89.3522 79.436 89.3522 79.436V79.568C89.3522 79.5973 89.3376 79.6267 89.3082 79.656C89.3082 79.656 89.3082 79.6707 89.3082 79.7C89.3376 80.1987 89.3376 80.58 89.3082 80.844C89.3082 81.0787 89.2936 81.2987 89.2642 81.504C89.2349 81.68 89.1762 81.9587 89.0882 82.34V82.56C89.2056 83.0293 89.2642 83.5133 89.2642 84.012C89.2642 84.4813 89.2496 84.9507 89.2202 85.42C89.2202 85.7427 89.2202 86.0653 89.2202 86.388C89.2496 86.7107 89.3229 87.048 89.4402 87.4C89.4109 87.576 89.3669 87.7813 89.3082 88.016C89.2496 88.2213 89.1762 88.4267 89.0882 88.632C89.0589 88.7493 89.0002 88.852 88.9122 88.94C88.8536 89.028 88.7509 89.1307 88.6042 89.248C87.9002 89.1893 87.2402 89.248 86.6242 89.424C86.3016 89.5413 85.9642 89.4973 85.6122 89.292C85.5536 89.2333 85.5242 89.204 85.5242 89.204C85.0842 88.94 84.6589 88.896 84.2482 89.072C84.0722 89.16 83.8962 89.1893 83.7202 89.16C83.5442 89.1307 83.3829 89.116 83.2362 89.116C83.0309 89.116 82.8549 89.1893 82.7082 89.336C82.5616 89.4827 82.3709 89.4973 82.1362 89.38C82.1069 89.1453 82.1216 88.9253 82.1802 88.72C82.2682 88.5147 82.3269 88.28 82.3562 88.016C82.3269 87.8107 82.2682 87.5907 82.1802 87.356C82.1216 87.1213 82.0629 86.8867 82.0042 86.652C82.0629 86.5053 82.1069 86.3733 82.1362 86.256C82.1656 86.1093 82.1802 85.9773 82.1802 85.86C82.2096 85.7133 82.2096 85.5667 82.1802 85.42C82.1802 85.244 82.1802 85.0827 82.1802 84.936C82.2096 84.4667 82.2096 84.0267 82.1802 83.616C82.1802 83.176 82.1509 82.736 82.0922 82.296C82.0336 81.944 81.9896 81.6067 81.9602 81.284C81.9602 80.932 81.9456 80.5653 81.9162 80.184C82.0042 80.0667 82.0776 79.9493 82.1362 79.832C82.2242 79.7147 82.3269 79.5973 82.4442 79.48C82.4736 79.2453 82.4882 79.128 82.4882 79.128C82.4882 79.0987 82.4882 78.952 82.4882 78.688C82.4589 78.2773 82.4589 77.852 82.4882 77.412C82.5176 76.9427 82.5762 76.5027 82.6642 76.092C82.6349 75.7693 82.5909 75.4613 82.5322 75.168C82.4736 74.8453 82.3709 74.5373 82.2242 74.244C82.2829 74.0973 82.3416 73.9507 82.4002 73.804C82.4882 73.6573 82.5469 73.5253 82.5762 73.408C82.5469 73.1733 82.5469 72.968 82.5762 72.792C82.6349 72.616 82.6202 72.4253 82.5322 72.22C82.5029 72.132 82.4296 72.0587 82.3122 72C82.1069 72 81.9016 71.9853 81.6962 71.956C81.4909 71.9267 81.2856 71.912 81.0802 71.912C80.8749 71.912 80.6696 71.8827 80.4642 71.824C80.2882 71.7653 80.0976 71.7653 79.8922 71.824C79.7162 71.912 79.5402 71.9267 79.3642 71.868C79.2176 71.78 79.0562 71.7507 78.8802 71.78H77.7362L76.6362 71.604C76.5776 71.604 76.5042 71.56 76.4162 71.472C76.3282 71.384 76.2842 71.296 76.2842 71.208V70.9C76.3429 70.724 76.3869 70.548 76.4162 70.372C76.4749 70.1667 76.4749 69.9613 76.4162 69.756C76.3869 69.7267 76.3722 69.6827 76.3722 69.624C76.4016 69.536 76.4162 69.4773 76.4162 69.448C76.5336 68.92 76.5922 68.304 76.5922 67.6C76.5922 66.896 76.5629 66.28 76.5042 65.752C76.5042 65.576 76.5042 65.4 76.5042 65.224C76.5042 65.048 76.5336 64.8867 76.5922 64.74C76.7389 64.5933 76.8856 64.52 77.0322 64.52C77.1789 64.4907 77.3256 64.4613 77.4722 64.432C77.6189 64.3733 77.7509 64.3147 77.8682 64.256C77.9856 64.168 78.1176 64.1093 78.2642 64.08C78.9389 63.8453 79.5696 63.8453 80.1562 64.08C80.1562 64.08 80.2589 64.1093 80.4642 64.168C80.7282 64.0507 81.0069 64.0067 81.3002 64.036C81.5936 64.036 81.9016 63.9627 82.2242 63.816C82.2829 63.816 82.3709 63.8307 82.4882 63.86C82.6349 63.86 82.7816 63.86 82.9282 63.86C83.1922 63.7427 83.4562 63.6253 83.7202 63.508C84.0136 63.3907 84.2922 63.2147 84.5562 62.98C85.0256 62.9213 85.4802 62.9067 85.9202 62.936C86.3896 62.9653 86.8296 62.9067 87.2402 62.76C87.4456 62.7893 87.6216 62.848 87.7682 62.936C87.9442 62.9947 88.0909 63.0533 88.2082 63.112C88.4136 63.112 88.5749 63.0533 88.6922 62.936C88.8096 62.7893 88.9856 62.7013 89.2202 62.672C89.4549 62.6133 89.7922 62.628 90.2322 62.716C90.4082 62.7453 90.5842 62.8333 90.7602 62.98C90.9656 63.0973 91.1709 63.1413 91.3762 63.112C91.5229 63.024 91.6402 62.936 91.7282 62.848C91.8456 62.76 91.9776 62.672 92.1242 62.584C92.3002 62.584 92.4909 62.628 92.6962 62.716C92.9016 62.7747 93.0922 62.7893 93.2682 62.76C93.4736 62.7307 93.6642 62.7013 93.8402 62.672C94.0456 62.6133 94.2949 62.584 94.5882 62.584C94.7056 62.6133 94.8229 62.6573 94.9402 62.716C95.0576 62.7453 95.1749 62.7893 95.2922 62.848C95.4682 62.7893 95.6442 62.7453 95.8202 62.716C96.0256 62.6867 96.2309 62.6573 96.4362 62.628C96.4949 62.716 96.5536 62.804 96.6122 62.892C96.6709 62.98 96.7149 63.0533 96.7442 63.112Z" fill="#0A0A0A"/>
<path d="M117.647 76.664C117.735 77.016 117.721 77.3387 117.603 77.632C117.545 77.7787 117.501 77.9253 117.471 78.072C117.442 78.2187 117.442 78.3653 117.471 78.512C117.501 78.5413 117.501 78.5853 117.471 78.644C117.471 78.6733 117.471 78.7173 117.471 78.776C117.354 79.0107 117.295 79.26 117.295 79.524C117.325 79.788 117.354 80.0373 117.383 80.272L116.943 80.888V81.46C116.885 81.5187 116.811 81.592 116.723 81.68C116.635 81.7387 116.518 81.8267 116.371 81.944C116.313 82.1493 116.225 82.3693 116.107 82.604C116.019 82.8387 115.946 83.0587 115.887 83.264V83.704C115.77 83.8213 115.623 83.924 115.447 84.012C115.271 84.1 115.125 84.232 115.007 84.408C114.89 84.496 114.773 84.5693 114.655 84.628C114.538 84.6867 114.406 84.76 114.259 84.848C114.201 84.8773 114.127 84.892 114.039 84.892C113.981 84.8627 113.922 84.8627 113.863 84.892C113.423 84.892 113.203 85.0973 113.203 85.508C112.881 85.7133 112.558 85.9333 112.235 86.168C111.942 86.4027 111.634 86.6373 111.311 86.872C110.813 87.2533 110.167 87.5173 109.375 87.664C109.111 87.6933 108.862 87.7667 108.627 87.884C108.393 87.972 108.143 88.0453 107.879 88.104C107.821 88.104 107.747 88.0893 107.659 88.06C107.571 88.0307 107.498 88.0307 107.439 88.06C107.087 88.0893 106.721 88.06 106.339 87.972C106.222 87.9427 106.105 87.9427 105.987 87.972C105.87 88.0013 105.767 88.0307 105.679 88.06C105.474 88.0307 105.269 88.0013 105.063 87.972C104.858 87.9427 104.638 87.9133 104.403 87.884C104.139 87.7667 103.89 87.6347 103.655 87.488C103.45 87.3413 103.23 87.2093 102.995 87.092C102.819 87.0333 102.658 86.9307 102.511 86.784C102.365 86.6373 102.247 86.4907 102.159 86.344C102.13 86.2853 102.086 86.2413 102.027 86.212C101.998 86.1533 101.954 86.0947 101.895 86.036C101.807 85.9773 101.719 85.9333 101.631 85.904C101.543 85.8453 101.455 85.772 101.367 85.684C100.898 85.3613 100.473 85.0093 100.091 84.628C99.7393 84.2467 99.4753 83.7773 99.2993 83.22C99.1527 82.8387 98.9767 82.5013 98.7713 82.208C98.7127 82.0907 98.6393 81.988 98.5513 81.9C98.4927 81.7827 98.434 81.6653 98.3753 81.548C98.4047 81.4893 98.4487 81.372 98.5073 81.196C98.4487 81.108 98.39 81.02 98.3313 80.932C98.2727 80.844 98.2433 80.7413 98.2433 80.624C98.2433 80.536 98.2287 80.448 98.1993 80.36C98.1993 80.2427 98.214 80.1253 98.2433 80.008C98.302 79.8027 98.3167 79.5973 98.2873 79.392C98.258 79.1867 98.258 78.9813 98.2873 78.776C98.3167 78.6 98.302 78.4093 98.2433 78.204C98.214 77.9987 98.2433 77.808 98.3313 77.632C98.39 77.4267 98.434 77.236 98.4633 77.06C98.4927 76.884 98.5367 76.708 98.5953 76.532C98.654 76.356 98.7127 76.1947 98.7713 76.048C98.83 75.872 98.8887 75.7107 98.9473 75.564C99.006 75.388 99.0647 75.212 99.1233 75.036C99.182 74.86 99.27 74.6693 99.3873 74.464C99.3873 74.4053 99.3873 74.332 99.3873 74.244C99.3873 74.156 99.402 74.0973 99.4313 74.068C99.5487 73.8333 99.6367 73.6133 99.6953 73.408C99.754 73.2027 99.7687 72.9973 99.7393 72.792C99.8567 72.6453 99.9593 72.528 100.047 72.44C100.135 72.352 100.209 72.2493 100.267 72.132C100.326 71.9853 100.385 71.8533 100.443 71.736C100.531 71.5893 100.619 71.4573 100.707 71.34C100.795 71.1053 100.927 70.9 101.103 70.724C101.221 70.5773 101.323 70.46 101.411 70.372C101.499 70.2547 101.573 70.1667 101.631 70.108C101.719 69.932 101.749 69.7853 101.719 69.668C101.69 69.5213 101.675 69.404 101.675 69.316C101.734 69.1693 101.778 69.0813 101.807 69.052C101.895 69.0227 101.969 68.9787 102.027 68.92C102.115 68.8613 102.203 68.8173 102.291 68.788C102.526 68.6413 102.775 68.4947 103.039 68.348C103.303 68.2013 103.567 68.084 103.831 67.996C104.095 67.82 104.359 67.7027 104.623 67.644C104.917 67.556 105.21 67.468 105.503 67.38C105.738 67.38 105.973 67.38 106.207 67.38C106.442 67.38 106.662 67.3947 106.867 67.424H107.263C107.586 67.5413 107.909 67.6 108.231 67.6C108.583 67.6 108.921 67.5853 109.243 67.556C109.39 67.556 109.537 67.556 109.683 67.556C109.859 67.5267 110.021 67.512 110.167 67.512C110.314 67.6293 110.431 67.732 110.519 67.82C110.637 67.8787 110.754 67.9667 110.871 68.084C110.959 68.1133 111.047 68.1573 111.135 68.216C111.223 68.2747 111.326 68.3187 111.443 68.348C111.854 68.3773 112.221 68.5093 112.543 68.744C112.895 68.9787 113.218 69.2133 113.511 69.448C113.511 69.5067 113.511 69.5947 113.511 69.712C113.511 69.8 113.526 69.888 113.555 69.976C113.555 70.1227 113.643 70.2547 113.819 70.372C113.907 70.4013 114.01 70.416 114.127 70.416C114.245 70.416 114.362 70.4453 114.479 70.504C114.538 70.6213 114.611 70.7533 114.699 70.9C114.817 71.0467 114.919 71.1933 115.007 71.34C115.125 71.4573 115.242 71.5747 115.359 71.692C115.477 71.8093 115.565 71.9413 115.623 72.088C115.682 72.1467 115.726 72.22 115.755 72.308C115.814 72.396 115.858 72.4693 115.887 72.528C115.975 72.616 116.063 72.704 116.151 72.792C116.239 72.88 116.298 72.9973 116.327 73.144C116.386 73.3493 116.474 73.5547 116.591 73.76C116.709 73.9653 116.797 74.1853 116.855 74.42C116.885 74.508 116.929 74.596 116.987 74.684C117.075 74.772 117.163 74.8747 117.251 74.992C117.31 75.256 117.354 75.5347 117.383 75.828C117.442 76.1213 117.53 76.4 117.647 76.664ZM111.487 78.248C111.517 78.0427 111.487 77.8667 111.399 77.72C111.311 77.544 111.282 77.368 111.311 77.192C111.311 77.1333 111.267 77.06 111.179 76.972C111.15 76.9133 111.135 76.796 111.135 76.62C111.165 76.5613 111.179 76.488 111.179 76.4C111.179 76.2827 111.179 76.2093 111.179 76.18C110.974 75.8573 110.783 75.564 110.607 75.3C110.431 75.0067 110.241 74.728 110.035 74.464C110.035 74.4053 110.006 74.376 109.947 74.376C109.889 74.3467 109.83 74.288 109.771 74.2C109.273 74.2 108.73 74.068 108.143 73.804C107.791 73.628 107.366 73.6133 106.867 73.76C106.838 73.76 106.794 73.7747 106.735 73.804C106.706 73.8333 106.662 73.8773 106.603 73.936H106.383C105.914 73.848 105.606 74.024 105.459 74.464C105.401 74.5813 105.327 74.7133 105.239 74.86C105.181 74.9773 105.137 75.1093 105.107 75.256C105.078 75.3733 105.019 75.5053 104.931 75.652C104.843 75.7693 104.77 75.8867 104.711 76.004C104.594 76.1507 104.491 76.312 104.403 76.488C104.315 76.664 104.213 76.8253 104.095 76.972C104.066 77.2653 103.993 77.5587 103.875 77.852C103.787 78.1453 103.729 78.424 103.699 78.688C103.787 78.8347 103.875 78.996 103.963 79.172C104.051 79.3187 104.125 79.4653 104.183 79.612C104.359 79.9933 104.433 80.36 104.403 80.712C104.403 80.7707 104.418 80.8293 104.447 80.888C104.477 80.9467 104.506 81.0053 104.535 81.064C104.799 81.1227 105.049 81.1813 105.283 81.24C105.547 81.2987 105.797 81.372 106.031 81.46C106.237 81.5187 106.442 81.5627 106.647 81.592C106.853 81.6213 107.058 81.592 107.263 81.504H107.395C107.63 81.5627 107.85 81.5773 108.055 81.548C108.29 81.4893 108.539 81.4307 108.803 81.372C109.009 81.2253 109.214 81.064 109.419 80.888C109.654 80.712 109.889 80.5653 110.123 80.448C110.329 80.0373 110.578 79.6707 110.871 79.348C111.165 79.0253 111.37 78.6587 111.487 78.248Z" fill="#0A0A0A"/>
<path d="M154.95 66.72C154.921 66.8373 154.877 66.9547 154.818 67.072C154.789 67.16 154.745 67.248 154.686 67.336C154.539 67.5413 154.422 67.7467 154.334 67.952C154.246 68.1573 154.173 68.3627 154.114 68.568C153.938 68.7733 153.747 68.92 153.542 69.008C153.337 69.0667 153.131 69.14 152.926 69.228C152.691 69.404 152.515 69.624 152.398 69.888C152.31 70.1227 152.193 70.3427 152.046 70.548C151.87 70.6653 151.694 70.7827 151.518 70.9C151.371 70.988 151.225 71.076 151.078 71.164L150.198 71.78C150.11 71.78 150.022 71.7947 149.934 71.824C149.875 71.824 149.802 71.824 149.714 71.824C149.509 72.0293 149.303 72.264 149.098 72.528C148.922 72.7627 148.761 72.9973 148.614 73.232C148.526 73.408 148.409 73.5693 148.262 73.716C148.115 73.8333 147.998 73.9653 147.91 74.112C147.881 74.2 147.866 74.332 147.866 74.508C147.573 74.6253 147.279 74.7427 146.986 74.86C146.722 74.9773 146.473 75.1093 146.238 75.256C146.062 75.5493 145.974 75.8573 145.974 76.18C146.003 76.4733 146.003 76.7813 145.974 77.104C145.945 77.3387 145.871 77.5293 145.754 77.676C145.637 77.8227 145.593 78.028 145.622 78.292C145.651 78.3213 145.666 78.4093 145.666 78.556C145.666 78.6733 145.71 78.7613 145.798 78.82C145.857 78.8787 145.886 78.996 145.886 79.172C145.915 79.3187 145.93 79.4653 145.93 79.612C145.959 79.7587 146.003 79.8907 146.062 80.008C146.121 80.096 146.121 80.2133 146.062 80.36C146.033 80.4773 146.018 80.5947 146.018 80.712C146.018 80.8293 146.018 80.932 146.018 81.02C146.047 81.4013 146.062 81.7827 146.062 82.164C146.091 82.5453 146.077 82.9267 146.018 83.308C146.018 83.4253 146.033 83.5573 146.062 83.704C146.121 83.8507 146.165 83.9973 146.194 84.144C146.253 84.32 146.267 84.4813 146.238 84.628C146.238 84.7747 146.238 84.936 146.238 85.112C146.267 85.2293 146.282 85.3613 146.282 85.508C146.311 85.6547 146.341 85.8013 146.37 85.948C146.429 86.0653 146.458 86.1973 146.458 86.344C146.487 86.4907 146.502 86.6227 146.502 86.74C146.502 86.8573 146.517 86.96 146.546 87.048C146.575 87.1067 146.605 87.1947 146.634 87.312C146.575 87.3707 146.502 87.444 146.414 87.532C146.326 87.62 146.253 87.708 146.194 87.796C146.106 87.9133 146.033 88.0307 145.974 88.148C145.945 88.236 145.901 88.3093 145.842 88.368C145.725 88.4853 145.593 88.544 145.446 88.544C145.299 88.544 145.153 88.5587 145.006 88.588C144.889 88.6173 144.771 88.632 144.654 88.632C144.537 88.632 144.434 88.632 144.346 88.632C144.111 88.72 143.95 88.7933 143.862 88.852C143.803 88.94 143.715 89.0573 143.598 89.204C143.393 89.204 143.246 89.1747 143.158 89.116C143.07 89.0867 142.953 89.0573 142.806 89.028C142.659 88.9693 142.513 88.9547 142.366 88.984C142.219 89.0427 142.073 89.0867 141.926 89.116C141.721 89.116 141.515 89.1013 141.31 89.072C141.105 89.072 140.914 89.0133 140.738 88.896C140.621 88.808 140.503 88.7493 140.386 88.72C140.298 88.6907 140.195 88.6613 140.078 88.632C139.961 88.632 139.858 88.632 139.77 88.632C139.711 88.6027 139.623 88.588 139.506 88.588C139.477 88.412 139.433 88.2507 139.374 88.104C139.315 87.928 139.286 87.752 139.286 87.576C139.286 87.1653 139.242 86.784 139.154 86.432C139.066 86.08 138.963 85.728 138.846 85.376C138.905 85.112 138.919 84.936 138.89 84.848C138.831 84.6133 138.831 84.3933 138.89 84.188C138.978 83.9827 138.963 83.7773 138.846 83.572C138.729 83.044 138.67 82.516 138.67 81.988C138.699 81.4307 138.714 80.8733 138.714 80.316C138.714 80.2573 138.729 80.184 138.758 80.096C138.787 79.9787 138.817 79.876 138.846 79.788C138.817 79.3773 138.773 78.9813 138.714 78.6C138.655 78.2187 138.553 77.852 138.406 77.5C138.435 77.3533 138.45 77.236 138.45 77.148C138.45 77.0307 138.465 76.9427 138.494 76.884C138.641 76.5027 138.685 76.136 138.626 75.784C138.567 75.4027 138.465 75.0213 138.318 74.64C138.289 74.4933 138.245 74.3467 138.186 74.2C138.127 74.0533 138.054 73.892 137.966 73.716C137.907 73.6573 137.849 73.584 137.79 73.496C137.731 73.3787 137.643 73.276 137.526 73.188C137.379 73.0413 137.203 72.8947 136.998 72.748C136.822 72.6013 136.661 72.44 136.514 72.264C136.367 72.1173 136.206 71.9707 136.03 71.824C135.883 71.6773 135.737 71.5307 135.59 71.384C135.443 71.2373 135.282 71.1347 135.106 71.076C134.959 71.0173 134.813 70.9293 134.666 70.812C134.461 70.372 134.255 69.888 134.05 69.36C133.61 69.0373 133.17 68.6853 132.73 68.304C132.29 67.9227 131.923 67.424 131.63 66.808C131.689 66.544 131.777 66.28 131.894 66.016C132.041 65.7227 132.202 65.444 132.378 65.18C132.437 65.1213 132.495 65.048 132.554 64.96C132.642 64.872 132.701 64.8133 132.73 64.784C132.965 64.5493 133.17 64.3147 133.346 64.08C133.551 63.8453 133.742 63.6107 133.918 63.376C134.065 63.4053 134.197 63.42 134.314 63.42C134.431 63.42 134.549 63.4347 134.666 63.464C134.725 63.4053 134.769 63.3613 134.798 63.332C134.857 63.3027 134.901 63.244 134.93 63.156C135.018 63.0973 135.091 63.0093 135.15 62.892C135.209 62.7747 135.253 62.672 135.282 62.584C135.458 62.3493 135.663 62.2907 135.898 62.408C136.602 62.7013 137.35 63.024 138.142 63.376C138.289 63.5227 138.435 63.684 138.582 63.86C138.729 64.0067 138.861 64.1533 138.978 64.3C139.154 64.5053 139.359 64.696 139.594 64.872C139.829 65.048 140.005 65.268 140.122 65.532C140.327 65.6787 140.533 65.84 140.738 66.016C140.973 66.1627 141.207 66.324 141.442 66.5C141.53 66.6467 141.647 66.8227 141.794 67.028C141.941 67.2333 142.102 67.468 142.278 67.732C142.366 67.7907 142.483 67.8787 142.63 67.996C142.777 68.1133 142.909 68.216 143.026 68.304C143.231 68.392 143.422 68.48 143.598 68.568C143.774 68.656 143.95 68.7293 144.126 68.788C144.302 68.8467 144.478 68.832 144.654 68.744C144.83 68.6267 145.006 68.524 145.182 68.436C145.387 68.3187 145.593 68.2307 145.798 68.172C145.857 68.172 145.915 68.1427 145.974 68.084C146.033 68.0253 146.091 67.9813 146.15 67.952C146.238 67.8347 146.341 67.7173 146.458 67.6C146.575 67.4827 146.693 67.3507 146.81 67.204C147.015 66.8227 147.353 66.5147 147.822 66.28C147.939 66.192 148.057 66.1187 148.174 66.06C148.291 66.0013 148.409 65.9427 148.526 65.884C148.761 65.5613 148.981 65.2533 149.186 64.96C149.391 64.6373 149.582 64.3147 149.758 63.992C149.817 63.904 149.875 63.8307 149.934 63.772C149.993 63.684 150.051 63.6253 150.11 63.596C150.345 63.4787 150.521 63.332 150.638 63.156C150.755 62.98 150.902 62.8333 151.078 62.716C151.401 62.628 151.665 62.716 151.87 62.98C151.958 63.0973 152.046 63.2293 152.134 63.376C152.222 63.4933 152.325 63.64 152.442 63.816C152.706 63.9333 152.941 64.0947 153.146 64.3C153.381 64.5053 153.601 64.7253 153.806 64.96C153.865 65.048 153.909 65.1507 153.938 65.268C153.997 65.356 154.041 65.4733 154.07 65.62C154.422 65.8253 154.715 66.0453 154.95 66.28C154.95 66.3387 154.95 66.412 154.95 66.5C154.979 66.5587 154.979 66.632 154.95 66.72Z" fill="#0A0A0A"/>
<path d="M173.765 76.664C173.853 77.016 173.838 77.3387 173.721 77.632C173.662 77.7787 173.618 77.9253 173.589 78.072C173.559 78.2187 173.559 78.3653 173.589 78.512C173.618 78.5413 173.618 78.5853 173.589 78.644C173.589 78.6733 173.589 78.7173 173.589 78.776C173.471 79.0107 173.413 79.26 173.413 79.524C173.442 79.788 173.471 80.0373 173.501 80.272L173.061 80.888V81.46C173.002 81.5187 172.929 81.592 172.841 81.68C172.753 81.7387 172.635 81.8267 172.489 81.944C172.43 82.1493 172.342 82.3693 172.225 82.604C172.137 82.8387 172.063 83.0587 172.005 83.264V83.704C171.887 83.8213 171.741 83.924 171.565 84.012C171.389 84.1 171.242 84.232 171.125 84.408C171.007 84.496 170.89 84.5693 170.773 84.628C170.655 84.6867 170.523 84.76 170.377 84.848C170.318 84.8773 170.245 84.892 170.157 84.892C170.098 84.8627 170.039 84.8627 169.981 84.892C169.541 84.892 169.321 85.0973 169.321 85.508C168.998 85.7133 168.675 85.9333 168.353 86.168C168.059 86.4027 167.751 86.6373 167.429 86.872C166.93 87.2533 166.285 87.5173 165.493 87.664C165.229 87.6933 164.979 87.7667 164.745 87.884C164.51 87.972 164.261 88.0453 163.997 88.104C163.938 88.104 163.865 88.0893 163.777 88.06C163.689 88.0307 163.615 88.0307 163.557 88.06C163.205 88.0893 162.838 88.06 162.457 87.972C162.339 87.9427 162.222 87.9427 162.105 87.972C161.987 88.0013 161.885 88.0307 161.797 88.06C161.591 88.0307 161.386 88.0013 161.181 87.972C160.975 87.9427 160.755 87.9133 160.521 87.884C160.257 87.7667 160.007 87.6347 159.773 87.488C159.567 87.3413 159.347 87.2093 159.113 87.092C158.937 87.0333 158.775 86.9307 158.629 86.784C158.482 86.6373 158.365 86.4907 158.277 86.344C158.247 86.2853 158.203 86.2413 158.145 86.212C158.115 86.1533 158.071 86.0947 158.013 86.036C157.925 85.9773 157.837 85.9333 157.749 85.904C157.661 85.8453 157.573 85.772 157.485 85.684C157.015 85.3613 156.59 85.0093 156.209 84.628C155.857 84.2467 155.593 83.7773 155.417 83.22C155.27 82.8387 155.094 82.5013 154.889 82.208C154.83 82.0907 154.757 81.988 154.669 81.9C154.61 81.7827 154.551 81.6653 154.493 81.548C154.522 81.4893 154.566 81.372 154.625 81.196C154.566 81.108 154.507 81.02 154.449 80.932C154.39 80.844 154.361 80.7413 154.361 80.624C154.361 80.536 154.346 80.448 154.317 80.36C154.317 80.2427 154.331 80.1253 154.361 80.008C154.419 79.8027 154.434 79.5973 154.405 79.392C154.375 79.1867 154.375 78.9813 154.405 78.776C154.434 78.6 154.419 78.4093 154.361 78.204C154.331 77.9987 154.361 77.808 154.449 77.632C154.507 77.4267 154.551 77.236 154.581 77.06C154.61 76.884 154.654 76.708 154.713 76.532C154.771 76.356 154.83 76.1947 154.889 76.048C154.947 75.872 155.006 75.7107 155.065 75.564C155.123 75.388 155.182 75.212 155.241 75.036C155.299 74.86 155.387 74.6693 155.505 74.464C155.505 74.4053 155.505 74.332 155.505 74.244C155.505 74.156 155.519 74.0973 155.549 74.068C155.666 73.8333 155.754 73.6133 155.813 73.408C155.871 73.2027 155.886 72.9973 155.857 72.792C155.974 72.6453 156.077 72.528 156.165 72.44C156.253 72.352 156.326 72.2493 156.385 72.132C156.443 71.9853 156.502 71.8533 156.561 71.736C156.649 71.5893 156.737 71.4573 156.825 71.34C156.913 71.1053 157.045 70.9 157.221 70.724C157.338 70.5773 157.441 70.46 157.529 70.372C157.617 70.2547 157.69 70.1667 157.749 70.108C157.837 69.932 157.866 69.7853 157.837 69.668C157.807 69.5213 157.793 69.404 157.793 69.316C157.851 69.1693 157.895 69.0813 157.925 69.052C158.013 69.0227 158.086 68.9787 158.145 68.92C158.233 68.8613 158.321 68.8173 158.409 68.788C158.643 68.6413 158.893 68.4947 159.157 68.348C159.421 68.2013 159.685 68.084 159.949 67.996C160.213 67.82 160.477 67.7027 160.741 67.644C161.034 67.556 161.327 67.468 161.621 67.38C161.855 67.38 162.09 67.38 162.325 67.38C162.559 67.38 162.779 67.3947 162.985 67.424H163.381C163.703 67.5413 164.026 67.6 164.349 67.6C164.701 67.6 165.038 67.5853 165.361 67.556C165.507 67.556 165.654 67.556 165.801 67.556C165.977 67.5267 166.138 67.512 166.285 67.512C166.431 67.6293 166.549 67.732 166.637 67.82C166.754 67.8787 166.871 67.9667 166.989 68.084C167.077 68.1133 167.165 68.1573 167.253 68.216C167.341 68.2747 167.443 68.3187 167.561 68.348C167.971 68.3773 168.338 68.5093 168.661 68.744C169.013 68.9787 169.335 69.2133 169.629 69.448C169.629 69.5067 169.629 69.5947 169.629 69.712C169.629 69.8 169.643 69.888 169.673 69.976C169.673 70.1227 169.761 70.2547 169.937 70.372C170.025 70.4013 170.127 70.416 170.245 70.416C170.362 70.416 170.479 70.4453 170.597 70.504C170.655 70.6213 170.729 70.7533 170.817 70.9C170.934 71.0467 171.037 71.1933 171.125 71.34C171.242 71.4573 171.359 71.5747 171.477 71.692C171.594 71.8093 171.682 71.9413 171.741 72.088C171.799 72.1467 171.843 72.22 171.873 72.308C171.931 72.396 171.975 72.4693 172.005 72.528C172.093 72.616 172.181 72.704 172.269 72.792C172.357 72.88 172.415 72.9973 172.445 73.144C172.503 73.3493 172.591 73.5547 172.709 73.76C172.826 73.9653 172.914 74.1853 172.973 74.42C173.002 74.508 173.046 74.596 173.105 74.684C173.193 74.772 173.281 74.8747 173.369 74.992C173.427 75.256 173.471 75.5347 173.501 75.828C173.559 76.1213 173.647 76.4 173.765 76.664ZM167.605 78.248C167.634 78.0427 167.605 77.8667 167.517 77.72C167.429 77.544 167.399 77.368 167.429 77.192C167.429 77.1333 167.385 77.06 167.297 76.972C167.267 76.9133 167.253 76.796 167.253 76.62C167.282 76.5613 167.297 76.488 167.297 76.4C167.297 76.2827 167.297 76.2093 167.297 76.18C167.091 75.8573 166.901 75.564 166.725 75.3C166.549 75.0067 166.358 74.728 166.153 74.464C166.153 74.4053 166.123 74.376 166.065 74.376C166.006 74.3467 165.947 74.288 165.889 74.2C165.39 74.2 164.847 74.068 164.261 73.804C163.909 73.628 163.483 73.6133 162.985 73.76C162.955 73.76 162.911 73.7747 162.853 73.804C162.823 73.8333 162.779 73.8773 162.721 73.936H162.501C162.031 73.848 161.723 74.024 161.577 74.464C161.518 74.5813 161.445 74.7133 161.357 74.86C161.298 74.9773 161.254 75.1093 161.225 75.256C161.195 75.3733 161.137 75.5053 161.049 75.652C160.961 75.7693 160.887 75.8867 160.829 76.004C160.711 76.1507 160.609 76.312 160.521 76.488C160.433 76.664 160.33 76.8253 160.213 76.972C160.183 77.2653 160.11 77.5587 159.993 77.852C159.905 78.1453 159.846 78.424 159.817 78.688C159.905 78.8347 159.993 78.996 160.081 79.172C160.169 79.3187 160.242 79.4653 160.301 79.612C160.477 79.9933 160.55 80.36 160.521 80.712C160.521 80.7707 160.535 80.8293 160.565 80.888C160.594 80.9467 160.623 81.0053 160.653 81.064C160.917 81.1227 161.166 81.1813 161.401 81.24C161.665 81.2987 161.914 81.372 162.149 81.46C162.354 81.5187 162.559 81.5627 162.765 81.592C162.97 81.6213 163.175 81.592 163.381 81.504H163.513C163.747 81.5627 163.967 81.5773 164.173 81.548C164.407 81.4893 164.657 81.4307 164.921 81.372C165.126 81.2253 165.331 81.064 165.537 80.888C165.771 80.712 166.006 80.5653 166.241 80.448C166.446 80.0373 166.695 79.6707 166.989 79.348C167.282 79.0253 167.487 78.6587 167.605 78.248Z" fill="#0A0A0A"/>
<path d="M196.043 72.484C196.101 72.66 196.116 72.836 196.087 73.012C196.087 73.188 196.057 73.3493 195.999 73.496C195.94 73.7013 195.896 73.9213 195.867 74.156C195.867 74.3613 195.867 74.5813 195.867 74.816C195.867 75.1093 195.852 75.4027 195.823 75.696C195.823 75.96 195.823 76.2387 195.823 76.532C195.823 76.7373 195.823 76.9573 195.823 77.192C195.823 77.4267 195.793 77.676 195.735 77.94C195.617 78.4093 195.485 78.8933 195.339 79.392C195.192 79.8907 195.075 80.404 194.987 80.932C194.957 80.9907 194.928 81.0787 194.899 81.196C194.899 81.284 194.869 81.3867 194.811 81.504C194.547 82.0613 194.283 82.6773 194.019 83.352C193.901 83.4987 193.769 83.66 193.623 83.836C193.505 84.012 193.373 84.1733 193.227 84.32C193.109 84.408 192.977 84.4813 192.831 84.54C192.713 84.5987 192.596 84.6573 192.479 84.716C192.42 84.716 192.376 84.7747 192.347 84.892C192.405 84.9507 192.449 85.024 192.479 85.112C192.537 85.2 192.581 85.2733 192.611 85.332C192.376 85.684 192.024 86.0213 191.555 86.344C191.437 86.3733 191.291 86.4173 191.115 86.476C190.968 86.5053 190.807 86.5347 190.631 86.564C190.337 86.74 190 86.9747 189.619 87.268C189.589 87.3267 189.545 87.4147 189.487 87.532C189.428 87.62 189.369 87.6933 189.311 87.752C189.105 87.8693 188.9 87.9133 188.695 87.884C188.519 87.8547 188.313 87.8253 188.079 87.796C187.991 87.8253 187.903 87.8693 187.815 87.928C187.756 87.9573 187.683 88.0013 187.595 88.06C187.536 88.0893 187.463 88.148 187.375 88.236C187.316 88.2947 187.257 88.3387 187.199 88.368C186.847 88.5147 186.495 88.5587 186.143 88.5C185.791 88.4413 185.439 88.456 185.087 88.544C184.94 88.456 184.779 88.3827 184.603 88.324C184.456 88.2653 184.309 88.2067 184.163 88.148C184.163 88.0893 184.163 88.0307 184.163 87.972C184.192 87.9133 184.221 87.84 184.251 87.752C184.192 87.5467 184.06 87.4293 183.855 87.4C183.649 87.3413 183.444 87.2827 183.239 87.224C183.063 87.1653 182.872 87.1653 182.667 87.224C182.461 87.224 182.359 87.0773 182.359 86.784C182.3 86.52 182.197 86.388 182.051 86.388H181.875C181.669 86.476 181.464 86.4907 181.259 86.432C181.083 86.344 180.907 86.2267 180.731 86.08C180.613 85.9627 180.54 85.8013 180.511 85.596C180.511 85.3907 180.452 85.1853 180.335 84.98C180.247 84.8333 180.1 84.716 179.895 84.628C179.719 84.5107 179.557 84.3933 179.411 84.276C179.235 83.836 179.059 83.4253 178.883 83.044C178.707 82.6333 178.545 82.2373 178.399 81.856C178.311 81.68 178.267 81.5333 178.267 81.416C178.296 81.2693 178.311 81.0933 178.311 80.888L178.179 80.668C178.179 80.668 178.149 80.6093 178.091 80.492C177.885 79.9053 177.753 79.3187 177.695 78.732C177.636 78.1453 177.695 77.544 177.871 76.928C177.841 76.84 177.797 76.752 177.739 76.664C177.709 76.576 177.665 76.5027 177.607 76.444C177.548 76.2973 177.548 76.1507 177.607 76.004C177.695 75.8573 177.739 75.7253 177.739 75.608C177.68 75.1973 177.695 74.86 177.783 74.596C177.841 74.4493 177.856 74.3027 177.827 74.156C177.797 74.0093 177.797 73.8773 177.827 73.76C177.915 73.408 177.973 73.0707 178.003 72.748C178.032 72.396 178.061 72.0587 178.091 71.736C178.12 71.0907 178.208 70.46 178.355 69.844C178.413 69.6093 178.501 69.404 178.619 69.228C178.736 69.052 178.853 68.876 178.971 68.7C179.029 68.6413 179.103 68.5973 179.191 68.568C179.279 68.5387 179.367 68.5093 179.455 68.48C179.631 68.4507 179.807 68.4213 179.983 68.392C180.188 68.3627 180.423 68.3333 180.687 68.304C180.833 68.3333 180.995 68.3627 181.171 68.392C181.376 68.4213 181.581 68.436 181.787 68.436C181.992 68.4653 182.197 68.4947 182.403 68.524C182.608 68.524 182.828 68.5387 183.063 68.568C183.092 68.656 183.121 68.7293 183.151 68.788C183.18 68.8467 183.209 68.9053 183.239 68.964C183.239 69.1693 183.224 69.3747 183.195 69.58C183.195 69.756 183.195 69.9467 183.195 70.152C183.224 70.24 183.253 70.328 183.283 70.416C183.341 70.4747 183.385 70.5627 183.415 70.68C183.385 70.7973 183.341 70.9293 183.283 71.076C183.253 71.2227 183.209 71.3693 183.151 71.516C183.239 71.9853 183.283 72.484 183.283 73.012C183.283 73.5107 183.312 74.0093 183.371 74.508C183.429 74.8307 183.473 75.1533 183.503 75.476C183.532 75.7693 183.591 76.0773 183.679 76.4C183.649 76.6053 183.664 76.8107 183.723 77.016C183.781 77.2213 183.84 77.4267 183.899 77.632C183.987 77.8373 184.045 78.0427 184.075 78.248C184.133 78.4533 184.192 78.6733 184.251 78.908C184.397 79.3773 184.617 79.8027 184.911 80.184C185.087 80.36 185.219 80.4773 185.307 80.536C185.365 80.5653 185.424 80.58 185.483 80.58C185.571 80.58 185.644 80.5947 185.703 80.624C185.908 80.624 186.069 80.5653 186.187 80.448C186.304 80.3307 186.436 80.2573 186.583 80.228C186.905 80.0813 187.213 79.964 187.507 79.876C187.653 79.9053 187.8 79.92 187.947 79.92H188.255L188.959 79.48C189.105 79.2453 189.208 78.9813 189.267 78.688C189.325 78.3947 189.457 78.1453 189.663 77.94C189.809 77.7053 189.941 77.4707 190.059 77.236C190.176 77.0013 190.323 76.8107 190.499 76.664C190.557 76.2533 190.601 75.872 190.631 75.52C190.66 75.168 190.733 74.816 190.851 74.464C190.88 74.376 190.88 74.288 190.851 74.2C190.851 74.0827 190.851 73.98 190.851 73.892C190.821 73.716 190.792 73.5547 190.763 73.408C190.763 73.232 190.763 73.1147 190.763 73.056C190.792 72.7333 190.807 72.44 190.807 72.176C190.807 71.912 190.821 71.6627 190.851 71.428C190.88 71.1933 190.895 70.9587 190.895 70.724C190.895 70.46 190.909 70.2253 190.939 70.02C190.997 69.5507 191.203 69.228 191.555 69.052C191.672 68.9933 191.775 68.9493 191.863 68.92C191.951 68.8613 192.053 68.8173 192.171 68.788C192.288 68.7587 192.405 68.744 192.523 68.744C192.64 68.744 192.787 68.7293 192.963 68.7C193.109 68.7293 193.256 68.7733 193.403 68.832C193.579 68.8907 193.755 68.9493 193.931 69.008C194.107 69.0373 194.268 69.0373 194.415 69.008C194.591 68.9787 194.767 68.9347 194.943 68.876C195.06 68.9053 195.163 68.9347 195.251 68.964C195.339 68.9933 195.441 69.0373 195.559 69.096C195.588 69.1253 195.617 69.1693 195.647 69.228C195.676 69.2573 195.691 69.3013 195.691 69.36C195.72 69.5067 195.749 69.668 195.779 69.844C195.808 70.02 195.823 70.196 195.823 70.372C195.852 70.724 195.867 71.076 195.867 71.428C195.896 71.78 195.955 72.132 196.043 72.484Z" fill="#0A0A0A"/>
</svg>
